<svg width="717px" height="298px" viewBox="0 0 717 298" version="1.1" xmlns="http://www.w3.org/2000/svg" xmlns:xlink="http://www.w3.org/1999/xlink">

    <g id="Page-1" stroke="none" stroke-width="1" fill="none" fill-rule="evenodd">
        <g id="Home---Mouse-Cursor" transform="translate(-360.000000, -660.000000)">
            <g id="Copy" transform="translate(0.000000, 660.000000)">
                <g id="Creative-Director" transform="translate(360.000000, 0.000000)">
                    <path d="M1,101.227591 L1,31.7682111 C1,11.8207297 11.3689157,0 31,0 C50.6310843,0 61,11.8207297 61,31.7682111 L61,45.4401275 L41.7434423,45.4401275 L41.7434423,30.4795165 C41.7434423,21.9791693 37.6657315,18.4698902 31.5554776,18.4698902 C25.4452237,18.4698902 21.3717211,21.9791693 21.3717211,30.4795165 L21.3717211,102.705182 C21.3717211,111.201332 25.4452237,114.525912 31.5554776,114.525912 C37.6657315,114.525912 41.7434423,111.201332 41.7434423,102.705182 L41.7434423,82.9423999 L61,82.9423999 L61,101.227591 C61,121.17927 50.6310843,133 31,133 C11.3689157,133 1,121.17927 1,101.227591" id="Fill-1" fill="#FFFFFF"></path>
                    <path d="M122.876592,57.7136828 C130.49504,57.7136828 135.140434,54.3713683 135.140434,43.9688362 L135.140434,33.9418925 C135.140434,24.6576854 131.981566,20.5726343 124.73475,20.5726343 L115.44396,20.5726343 L115.44396,57.7136828 L122.876592,57.7136828 Z M95,2 L125.292197,2 C146.479421,2 155.584395,11.8454796 155.584395,31.899367 L155.584395,39.8837851 C155.584395,53.2530433 151.310631,61.798734 142.205658,65.5166369 L142.205658,65.8880052 C152.425526,69.0446356 155.77021,78.700211 155.77021,93.3692582 L155.77021,116.212628 C155.77021,122.525889 155.956026,127.167992 158,132 L137.184408,132 C136.073736,128.657685 135.32625,126.61094 135.32625,116.026944 L135.32625,92.2593735 C135.32625,80.1856841 131.79575,76.2820971 122.50496,76.2820971 L115.44396,76.2820971 L115.44396,132 L95,132 L95,2 Z" id="Fill-3" fill="#FFFFFF"></path>
                    <polygon id="Fill-5" fill="#FFFFFF" points="191 2 247 2 247 20.5726343 211.534464 20.5726343 211.534464 54.9284207 239.721103 54.9284207 239.721103 73.4968349 211.534464 73.4968349 211.534464 113.427366 247 113.427366 247 132 191 132"></polygon>
                    <path d="M317.447257,88.9128388 L308.350211,24.6576854 L307.978903,24.6576854 L299.067511,88.9128388 L317.447257,88.9128388 Z M295.168776,2 L322.831224,2 L344,132 L323.578059,132 L319.860759,106.185684 L319.860759,106.557052 L296.654008,106.557052 L292.936709,132 L274,132 L295.168776,2 Z" id="Fill-7" fill="#FFFFFF"></path>
                    <polygon id="Fill-9" fill="#FFFFFF" points="390.312972 20.5732372 369 20.5732372 369 2 432 2 432 20.5732372 410.695449 20.5732372 410.695449 132 390.312972 132"></polygon>
                    <polygon id="Fill-11" fill="#FFFFFF" points="557 2 577.46398 2 590.739384 102.84337 591.108029 102.84337 604.383434 2 623 2 603.457632 132 576.542368 132"></polygon>
                    <polygon id="Fill-13" fill="#FFFFFF" points="655 2 711 2 711 20.5726343 675.534464 20.5726343 675.534464 54.9284207 703.716861 54.9284207 703.716861 73.4968349 675.534464 73.4968349 675.534464 113.427366 711 113.427366 711 132 655 132"></polygon>
                    <path d="M31,276.430983 C37.5352498,276.430983 41.4563997,273.08856 41.4563997,263.799831 L41.4563997,196.200169 C41.4563997,186.91566 37.5352498,183.573237 31,183.573237 L20.5436003,183.573237 L20.5436003,276.430983 L31,276.430983 Z M0,165 L31.3734428,165 C51.9170431,165 62,176.3271 62,197.12862 L62,262.87138 C62,283.6729 51.9170431,295 31.3734428,295 L0,295 L0,165 Z" id="Fill-15" fill="#C21E4E"></path>
                    <path d="M218.876592,220.713683 C226.49504,220.713683 231.140434,217.371368 231.140434,206.968836 L231.140434,196.941893 C231.140434,187.657685 227.981566,183.572634 220.73475,183.572634 L211.44396,183.572634 L211.44396,220.713683 L218.876592,220.713683 Z M191,165 L221.292197,165 C242.479421,165 251.584395,174.84548 251.584395,194.899367 L251.584395,202.883785 C251.584395,216.253043 247.310631,224.798734 238.205658,228.516637 L238.205658,228.888005 C248.425526,232.044636 251.77021,241.700211 251.77021,256.369258 L251.77021,279.212628 C251.77021,285.525889 251.956026,290.167992 254,295 L233.184408,295 C232.073736,291.657685 231.32625,289.61094 231.32625,279.026944 L231.32625,255.259373 C231.32625,243.185684 227.79575,239.282097 218.50496,239.282097 L211.44396,239.282097 L211.44396,295 L191,295 L191,165 Z" id="Fill-17" fill="#C21E4E"></path>
                    <polygon id="Fill-19" fill="#C21E4E" points="281 165 337 165 337 183.572634 301.534464 183.572634 301.534464 217.928421 329.716861 217.928421 329.716861 236.496835 301.534464 236.496835 301.534464 276.427366 337 276.427366 337 295 281 295"></polygon>
                    <path d="M371,264.227591 L371,194.768211 C371,174.82073 381.371669,163 400.995792,163 C420.628331,163 431,174.82073 431,194.768211 L431,208.440128 L411.737728,208.440128 L411.737728,193.479516 C411.737728,184.979169 407.669004,181.46989 401.5554,181.46989 C395.45021,181.46989 391.373072,184.979169 391.373072,193.479516 L391.373072,265.705182 C391.373072,274.201332 395.45021,277.525912 401.5554,277.525912 C407.669004,277.525912 411.737728,274.201332 411.737728,265.705182 L411.737728,245.9424 L431,245.9424 L431,264.227591 C431,284.17927 420.628331,296 400.995792,296 C381.371669,296 371,284.17927 371,264.227591" id="Fill-21" fill="#C21E4E"></path>
                    <polygon id="Fill-23" fill="#C21E4E" points="484.310186 185.573237 463 185.573237 463 167 526 167 526 185.573237 504.694025 185.573237 504.694025 297 484.310186 297"></polygon>
                    <path d="M600.579399,266.781688 L600.579399,196.214114 C600.579399,186.979169 596.496122,183.46989 590,183.46989 C583.503878,183.46989 579.416383,186.979169 579.416383,196.214114 L579.416383,266.781688 C579.416383,276.016633 583.503878,279.525912 590,279.525912 C596.496122,279.525912 600.579399,276.016633 600.579399,266.781688 M559,265.488796 L559,197.511204 C559,176.82073 569.950606,165 590,165 C610.045176,165 621,176.82073 621,197.511204 L621,265.488796 C621,286.17927 610.045176,298 590,298 C569.950606,298 559,286.17927 559,265.488796" id="Fill-25" fill="#C21E4E"></path>
                    <path d="M681.880815,222.713683 C689.499263,222.713683 694.144657,219.371368 694.144657,208.968836 L694.144657,198.941893 C694.144657,189.657685 690.985789,185.572634 683.73475,185.572634 L674.44396,185.572634 L674.44396,222.713683 L681.880815,222.713683 Z M654,167 L684.292197,167 C705.483644,167 714.588618,176.84548 714.588618,196.899367 L714.588618,204.883785 C714.588618,218.253043 710.310631,226.798734 701.205658,230.516637 L701.205658,230.888005 C711.429749,234.044636 714.774434,243.700211 714.774434,258.369258 L714.774434,281.212628 C714.774434,287.525889 714.960249,292.167992 717,297 L696.188631,297 C695.073736,293.657685 694.330473,291.61094 694.330473,281.026944 L694.330473,257.259373 C694.330473,245.185684 690.799973,241.282097 681.509184,241.282097 L674.44396,241.282097 L674.44396,297 L654,297 L654,167 Z" id="Fill-27" fill="#C21E4E"></path>
                    <polygon id="Fill-29" fill="#FFFFFF" points="526 20.5732372 526 2 504.691238 2 484.308762 2 463 2 463 20.5732372 484.308762 20.5732372 484.308762 113.426763 463 113.426763 463 132 484.317182 132 504.691238 132 526 132 526 113.426763 504.691238 113.426763 504.691238 20.5732372"></polygon>
                    <polygon id="Fill-31" fill="#C21E4E" points="158 183.573237 158 165 136.687028 165 116.308762 165 95 165 95 183.573237 116.308762 183.573237 116.308762 276.426763 95 276.426763 95 295 116.312972 295 136.691238 295 158 295 158 276.426763 136.691238 276.426763 136.691238 183.573237"></polygon>
                </g>
            </g>
        </g>
    </g>
</svg>