<svg viewBox="0 0 580 216" version="1.1" xmlns="http://www.w3.org/2000/svg" xmlns:xlink="http://www.w3.org/1999/xlink">
    <g id="Page-1" stroke="none" stroke-width="1" fill="none" fill-rule="evenodd">
        <g id="Work---Eggs-Off" transform="translate(-430.000000, -603.000000)" fill="#FFFFFF">
            <g id="Copy" transform="translate(430.000000, 603.000000)">
                <g id="WORK-2">
                    <path d="M81.75,70.5 L61.05,213 L28.95,213 L0.15,3 L22.95,3 L47.55,181.8 L70.95,3.3 L94.05,3.3 L117.15,182.1 L140.85,3 L161.25,3 L132.75,213 L101.85,213 L81.75,70.5 Z M198.35,162.3 L198.35,53.7 C198.35,21.6 214.25,0.9 246.35,0.9 C278.75,0.9 294.65,21.6 294.65,53.7 L294.65,162.3 C294.65,194.1 278.75,215.1 246.35,215.1 C214.25,215.1 198.35,194.1 198.35,162.3 Z M221.45,52.5 L221.45,163.5 C221.45,182.7 229.55,193.8 246.35,193.8 C263.45,193.8 271.25,182.7 271.25,163.5 L271.25,52.5 C271.25,33.6 263.45,22.2 246.35,22.2 C229.55,22.2 221.45,33.6 221.45,52.5 Z M336.85,3 L383.65,3 C416.65,3 430.45,19.8 430.45,51 L430.45,68.1 C430.45,91.2 422.35,105.6 404.35,111.3 C423.55,117 430.75,132.6 430.75,155.1 L430.75,187.8 C430.75,197.1 431.05,205.8 434.95,213 L411.25,213 C408.55,207 407.35,201.6 407.35,187.5 L407.35,154.5 C407.35,130.8 396.25,123.3 376.75,123.3 L360.25,123.3 L360.25,213 L336.85,213 L336.85,3 Z M360.25,102 L377.65,102 C396.25,102 407.35,96 407.35,73.2 L407.35,53.1 C407.35,34.2 400.45,24.3 383.05,24.3 L360.25,24.3 L360.25,102 Z M555.75,213 L510.75,121.8 L498.45,142.5 L498.45,213 L475.05,213 L475.05,3 L498.45,3 L498.45,104.4 L554.25,3 L577.95,3 L524.85,98.7 L579.75,213 L555.75,213 Z" id="WORK"></path>
                </g>
            </g>
        </g>
    </g>
</svg>