<?xml version="1.0" encoding="UTF-8"?>
<svg width="837px" height="144px" viewBox="0 0 837 144" version="1.1" xmlns="http://www.w3.org/2000/svg" xmlns:xlink="http://www.w3.org/1999/xlink">
    <!-- Generator: Sketch 51.2 (57519) - http://www.bohemiancoding.com/sketch -->
    <title>and more…</title>
    <desc>Created with Sketch.</desc>
    <defs></defs>
    <g id="Page-1" stroke="none" stroke-width="1" fill="none" fill-rule="evenodd">
        <g id="Work-Detail---Skadden" transform="translate(-233.000000, -954.000000)" fill="#FFFFFF">
            <g id="Copy" transform="translate(233.000000, 954.000000)">
                <path d="M0.554547405,142 L23.3545474,2 L53.1545474,2 L75.9545474,142 L53.9545474,142 L49.9545474,114.2 L49.9545474,114.6 L24.9545474,114.6 L20.9545474,142 L0.554547405,142 Z M27.5545474,95.6 L47.3545474,95.6 L37.5545474,26.4 L37.1545474,26.4 L27.5545474,95.6 Z M102.009092,142 L102.009092,2 L129.609092,2 L151.009092,85.8 L151.409092,85.8 L151.409092,2 L171.009092,2 L171.009092,142 L148.409092,142 L122.009092,39.8 L121.609092,39.8 L121.609092,142 L102.009092,142 Z M202.863637,142 L202.863637,2 L236.463637,2 C258.463637,2 269.263637,14.2 269.263637,36.6 L269.263637,107.4 C269.263637,129.8 258.463637,142 236.463637,142 L202.863637,142 Z M224.863637,122 L236.063637,122 C243.063637,122 247.263637,118.4 247.263637,108.4 L247.263637,35.6 C247.263637,25.6 243.063637,22 236.063637,22 L224.863637,22 L224.863637,122 Z M346.972727,142 L346.972727,2 L378.372727,2 L392.372727,102.2 L392.772727,102.2 L406.772727,2 L438.172727,2 L438.172727,142 L417.372727,142 L417.372727,36 L416.972727,36 L400.972727,142 L382.572727,142 L366.572727,36 L366.172727,36 L366.172727,142 L346.972727,142 Z M501.827273,144 C480.227273,144 468.427273,131.2 468.427273,108.8 L468.427273,35.2 C468.427273,12.8 480.227273,0 501.827273,0 C523.427273,0 535.227273,12.8 535.227273,35.2 L535.227273,108.8 C535.227273,131.2 523.427273,144 501.827273,144 Z M501.827273,124 C508.827273,124 513.227273,120.2 513.227273,110.2 L513.227273,33.8 C513.227273,23.8 508.827273,20 501.827273,20 C494.827273,20 490.427273,23.8 490.427273,33.8 L490.427273,110.2 C490.427273,120.2 494.827273,124 501.827273,124 Z M565.481818,142 L565.481818,2 L598.081818,2 C620.881818,2 630.681818,12.6 630.681818,34.2 L630.681818,42.8 C630.681818,57.2 626.081818,66.4 616.281818,70.4 L616.281818,70.8 C627.281818,74.2 630.881818,84.6 630.881818,100.4 L630.881818,125 C630.881818,131.8 631.081818,136.8 633.281818,142 L610.881818,142 C609.681818,138.4 608.881818,136.2 608.881818,124.8 L608.881818,99.2 C608.881818,86.2 605.081818,82 595.081818,82 L587.481818,82 L587.481818,142 L565.481818,142 Z M587.481818,62 L595.481818,62 C603.681818,62 608.681818,58.4 608.681818,47.2 L608.681818,36.4 C608.681818,26.4 605.281818,22 597.481818,22 L587.481818,22 L587.481818,62 Z M661.536363,142 L661.536363,2 L721.536363,2 L721.536363,22 L683.536363,22 L683.536363,59 L713.736363,59 L713.736363,79 L683.536363,79 L683.536363,122 L721.536363,122 L721.536363,142 L661.536363,142 Z M748.590908,142 L748.590908,120.8 L769.790908,120.8 L769.790908,142 L748.590908,142 Z M781.790908,142 L781.790908,120.8 L802.990908,120.8 L802.990908,142 L781.790908,142 Z M814.990908,142 L814.990908,120.8 L836.190908,120.8 L836.190908,142 L814.990908,142 Z" id="and-more…"></path>
            </g>
        </g>
    </g>
</svg>