<?xml version="1.0" encoding="UTF-8"?>
<svg width="1280px" height="226px" viewBox="0 0 1280 226" version="1.1" xmlns="http://www.w3.org/2000/svg" xmlns:xlink="http://www.w3.org/1999/xlink">
    <!-- Generator: Sketch 51.2 (57519) - http://www.bohemiancoding.com/sketch -->
    <title>Artboard</title>
    <desc>Created with Sketch.</desc>
    <defs>
        <polygon id="path-1" points="0 0.155956627 70.3400341 0.155956627 70.3400341 68.259788 0 68.259788"></polygon>
        <polygon id="path-3" points="0.485831579 0.657045161 46.3462877 0.657045161 46.3462877 78 0.485831579 78"></polygon>
        <polygon id="path-5" points="0 288 288 288 288 0 0 0"></polygon>
    </defs>
    <g id="Artboard" stroke="none" stroke-width="1" fill="none" fill-rule="evenodd">
        <rect id="Rectangle-8" fill="#FFFFFF" x="0" y="-139" width="1280" height="507"></rect>
        <rect id="Rectangle" fill="#1C1C1C" x="0" y="0" width="965" height="226"></rect>
        <g id="Group-37" transform="translate(67.000000, 70.000000)">
            <g id="Group-3" transform="translate(0.000000, 6.000000)">
                <mask id="mask-2" fill="white">
                    <use xlink:href="#path-1"></use>
                </mask>
                <g id="Clip-2"></g>
                <path d="M16.9572224,53.0457036 C16.9572224,62.9093783 18.8683753,65.6444386 25.7946341,65.6444386 L31.0494694,65.6444386 C41.4380224,65.6444386 47.8881635,63.1479687 53.0227165,56.9678964 C57.5608694,51.4994386 59.8295282,44.4872096 59.8295282,35.3351494 C59.8295282,22.7372458 54.9347047,12.2783422 46.6928576,6.80988434 C41.9149753,3.71901687 36.3034694,2.41217349 27.1077165,2.41217349 L16.9572224,2.41217349 L16.9572224,53.0457036 Z M-8.35294118e-05,66.2396675 L0.836045882,66.2396675 C5.73170471,66.2396675 7.76146941,63.1479687 7.76146941,55.4216313 L7.76146941,53.2826313 L7.76146941,15.1306193 L7.76146941,12.990788 C7.76146941,5.26528193 5.73170471,2.17607711 0.836045882,2.17607711 L-8.35294118e-05,2.17607711 L-8.35294118e-05,0.155956627 L27.58634,0.155956627 C36.3034694,0.155956627 39.1701988,0.392884337 43.5880694,1.4628 C46.3345165,2.17607711 49.0809635,3.12628193 51.7087988,4.4331253 C63.2934929,10.3754386 70.3400341,22.0256313 70.3400341,35.3351494 C70.3400341,49.5990289 62.8157047,60.6506675 49.7976459,65.4058482 C44.4250341,67.4276313 38.9304694,68.259788 31.2875282,68.259788 L-8.35294118e-05,68.259788 L-8.35294118e-05,66.2396675 Z" id="Fill-1" fill="#FFFFFF" mask="url(#mask-2)"></path>
            </g>
            <path d="M111.336004,47.2984692 C111.336004,38.9968328 107.181669,34.2520926 100.059359,34.2520926 C93.4127561,34.2520926 89.6137482,38.4045698 88.5477678,47.2984692 L111.336004,47.2984692 Z M88.3086694,49.3149838 C88.663166,57.7335797 89.6137482,61.5310308 92.7004421,65.919086 C95.7854756,70.5435488 100.652954,73.5081819 105.163446,73.5081819 C110.030095,73.5081819 114.421037,70.6629968 120,64.1398085 L120,67.2230601 C114.895913,73.6259709 110.030095,76 102.670347,76 C89.4966896,76 80,66.9849936 80,54.4139205 C80,41.8428474 89.3779706,32 101.24738,32 C110.741579,32 119.408065,39.5899253 119.287686,47.8923912 L119.287686,49.3149838 L88.3086694,49.3149838 Z" id="Fill-4" fill="#FFFFFF"></path>
            <path d="M141.566894,40.5531426 L141.804481,40.5531426 C145.262413,35.3265452 151.10205,32 156.822476,32 C163.139787,32 167.788154,35.20774 170.052316,41.2651429 C174.582307,35.20774 179.945936,32 185.784738,32 C190.91078,32 195.915945,34.4957397 198.18094,38.1770389 C199.49142,40.5531426 199.969094,42.6908051 199.969094,47.5609869 L199.969094,64.90239 C199.969094,71.5546496 201.039486,72.9811426 205.927107,72.9811426 L207,72.9811426 L207,75 L184.713513,75 L184.713513,72.9811426 L185.903949,72.9811426 C190.671526,72.9811426 191.862795,71.5546496 191.862795,64.90239 L191.862795,47.9174025 L191.862795,44.8284676 C191.862795,39.4822343 188.288988,36.0377147 182.685271,36.0377147 C178.276158,36.0377147 174.461429,38.5326236 170.767578,44.1172981 L170.767578,64.90239 C170.767578,71.5546496 171.84047,72.9811426 176.608048,72.9811426 L177.799317,72.9811426 L177.799317,75 L155.631207,75 L155.631207,72.9811426 L156.822476,72.9811426 C161.70843,72.9811426 162.78299,71.5546496 162.78299,64.90239 L162.78299,48.0362077 C162.78299,39.6018703 160.041987,36.0377147 153.723842,36.0377147 C149.075475,36.0377147 144.903949,38.7710648 141.566894,44.1172981 L141.566894,64.90239 C141.566894,71.5546496 142.640621,72.9811426 147.408198,72.9811426 L148.598634,72.9811426 L148.598634,75 L126.311313,75 L126.311313,72.9811426 L127.503416,72.9811426 C132.27016,72.9811426 133.343886,71.5546496 133.343886,64.90239 L133.343886,43.4036362 L133.343886,40.4326758 C133.343886,36.988987 131.436521,35.20774 127.860213,35.20774 L125,35.20774 L125,33.1888827 L141.566894,32.119636 L141.566894,40.5531426 Z" id="Fill-6" fill="#FFFFFF"></path>
            <path d="M245.333693,47.2984692 C245.333693,38.9968328 241.181105,34.2520926 234.058943,34.2520926 C227.410817,34.2520926 223.613549,38.4045698 222.54676,47.2984692 L245.333693,47.2984692 Z M222.308497,49.3149838 C222.663816,57.7335797 223.613549,61.5310308 226.700178,65.919086 C229.785978,70.5435488 234.651696,73.5081819 239.163754,73.5081819 C244.027811,73.5081819 248.420323,70.6629968 254,64.1398085 L254,67.2230601 C248.895189,73.6259709 244.027811,76 236.669877,76 C223.494832,76 214,66.9849936 214,54.4139205 C214,41.8428474 223.376946,32 235.246109,32 C244.742601,32 253.406417,39.5899253 253.286871,47.8923912 L253.286871,49.3149838 L222.308497,49.3149838 Z" id="Fill-8" fill="#FFFFFF"></path>
            <path d="M275.80062,41.0020039 C283.960034,34.1326422 287.31915,32.1176516 290.439889,32.1176516 C292.719589,32.1176516 295.961196,33.1831442 298,34.6065627 L294.761751,42.6607256 L293.801524,42.1859766 C289.360473,39.8180312 287.20164,38.9894988 284.800232,38.9894988 C282.040418,38.9894988 279.63985,40.2919517 275.80062,43.9631785 L275.80062,64.9300179 C275.80062,71.5640764 276.880036,72.9866664 281.679494,72.9866664 L282.880617,72.9866664 L282.880617,75 L260.320313,75 L260.320313,72.9866664 L261.398889,72.9866664 C266.320054,72.9866664 267.40031,71.5640764 267.40031,64.9300179 L267.40031,45.5042486 L267.40031,42.3052853 C267.40031,36.5005877 266.199186,35.316615 260.680398,35.316615 L259,35.316615 L259,33.3032814 L275.80062,32 L275.80062,41.0020039 Z" id="Fill-10" fill="#FFFFFF"></path>
            <path d="M317.434109,64.8477525 C317.434109,71.6562904 318.497468,72.9702187 323.22553,72.9702187 L325,72.9702187 L325,75 L301.710284,75 L301.710284,72.9702187 L303.719587,72.9702187 C308.685788,72.9702187 309.513488,71.6562904 309.513488,64.6088564 L309.513488,61.5048782 L309.513488,11.4653406 C309.513488,4.65847329 308.685788,3.46399296 304.074315,3.46399296 L301,3.46399296 L301,1.31559897 L317.434109,0 L317.434109,64.8477525 Z" id="Fill-12" fill="#FFFFFF"></path>
            <g id="Group-16" transform="translate(329.000000, 32.000000)">
                <mask id="mask-4" fill="white">
                    <use xlink:href="#path-3"></use>
                </mask>
                <g id="Clip-15"></g>
                <path d="M46.3462877,2.69510968 C41.8656211,2.69510968 39.1544632,5.45362581 36.7978667,12.5281419 L21.5896561,58.2126581 C18.4060246,67.6875613 17.4627263,69.8455613 14.5157439,73.4427871 C12.0404105,76.4403355 9.21051579,78.0003355 6.02853333,78.0003355 C4.37693684,78.0003355 3.43446316,77.7596258 1.19495439,76.7993032 L3.90693684,68.8852387 C5.55688421,69.6031742 6.50018246,69.8455613 7.91430526,69.8455613 C13.1007965,69.8455613 16.4023404,66.6073032 18.7597614,59.4136903 L23.830814,44.0636258 L9.68298947,10.4884 L8.85760351,8.57027097 C6.61727018,3.77369032 5.20397193,2.81588387 0.485831579,2.69510968 L0.485831579,0.657045161 L20.4097088,0.657045161 L20.4097088,2.69510968 C17.8156386,3.05407742 16.8739895,4.01356129 16.8739895,6.05162581 C16.8739895,7.49085161 17.2269018,8.45033548 18.2881123,11.2088516 L27.6023579,33.0320774 L35.0283579,10.7291097 C35.6187439,8.93007742 35.8545684,7.73156129 35.8545684,6.65214194 C35.8545684,4.01356129 34.7917088,2.93498065 31.6105509,2.69510968 L31.6105509,0.657045161 L46.3462877,0.657045161 L46.3462877,2.69510968 Z" id="Fill-14" fill="#FFFFFF" mask="url(#mask-4)"></path>
            </g>
            <path d="M425.879445,14.2226209 L425.640241,14.2226209 L416.041889,43.1797492 L435.481154,43.1797492 L425.879445,14.2226209 Z M451.319777,62.4839458 C454.080269,70.7099007 455.518007,72.4969559 459.240348,72.733674 L461.039829,72.8537001 L462,72.9737262 L462,75 L437.879902,75 L437.879902,72.9737262 C441.721425,72.9737262 443.76011,71.5434152 443.76011,68.9211785 C443.76011,67.8467783 443.520906,67.1332898 442.439036,63.9159238 L436.919731,47.3514895 L414.720815,47.3514895 L410.040821,61.0561354 C408.840607,64.7502718 408.239661,67.1332898 408.239661,68.5644343 C408.239661,71.4225556 409.800778,72.733674 413.760644,72.9737262 L413.760644,75 L396,75 L396,72.9737262 C400.801694,72.3777633 403.561346,69.8747191 405.480848,64.1551424 L406.080116,62.1280351 L425.160156,6 L432.359759,6 L451.319777,62.4839458 Z" id="Fill-17" fill="#429FF2"></path>
            <path d="M481.799057,41.0020039 C489.958959,34.1326422 493.320449,32.1176516 496.440214,32.1176516 C498.720656,32.1176516 501.958766,33.1831442 504,34.6065627 L500.759372,42.6607256 L499.799187,42.1859766 C495.359166,39.8180312 493.199587,38.9894988 490.799122,38.9894988 C488.040266,38.9894988 485.64064,40.2919517 481.799057,43.9631785 L481.799057,64.9300179 C481.799057,71.5640764 482.878427,72.9866664 487.679357,72.9866664 L488.879589,72.9866664 L488.879589,75 L466.320256,75 L466.320256,72.9866664 L467.398786,72.9866664 C472.319739,72.9866664 473.399948,71.5640764 473.399948,64.9300179 L473.399948,45.5042486 L473.399948,42.3052853 C473.399948,36.5005877 472.199716,35.316615 466.679486,35.316615 L465,35.316615 L465,33.3032814 L481.799057,32 L481.799057,41.0020039 Z" id="Fill-19" fill="#429FF2"></path>
            <path d="M547.801067,46.5867582 L545.998887,46.5867582 C544.316852,38.9968328 538.670861,34.1334741 531.584805,34.1334741 C523.054485,34.1334741 517.290029,41.1319659 517.290029,51.5670764 C517.290029,63.0714124 524.49623,72.6778523 533.26516,72.6778523 C539.150602,72.6778523 543.83627,70.0690747 549,64.02119 L549,66.9858231 C544.918419,72.6778523 538.071814,76 530.383352,76 C517.76893,76 509,67.3408491 509,55.0078425 C509,42.1995325 518.611628,32 530.865614,32 C533.627276,32 536.989666,32.593922 540.112605,33.5428701 C541.194753,33.8978961 542.153395,34.1334741 542.754122,34.1334741 C543.83627,34.1334741 544.918419,33.4234221 545.637611,32.119448 L547.801067,32.119448 L547.801067,46.5867582 Z" id="Fill-21" fill="#429FF2"></path>
            <path d="M566.501696,40.0084087 C571.944256,33.916559 575.849889,31.7673297 581.291621,31.7673297 C589.813002,31.7673297 595.372259,37.619448 595.372259,46.5772152 L595.372259,64.8477525 C595.372259,71.5368423 596.319907,72.7296521 601.289885,72.9702187 L602,72.9702187 L602,75 L580.228104,75 L580.228104,72.9702187 C586.498304,72.8491001 587.327599,71.8943511 587.327599,64.8477525 L587.327599,47.1736201 L587.327599,45.2632869 C587.327599,39.5314519 583.894549,35.8277275 578.689521,35.8277275 C574.075429,35.8277275 570.642378,38.0972402 566.501696,43.7096271 L566.501696,64.8477525 C566.501696,71.8943511 567.329336,72.8491001 573.600364,72.9702187 L573.600364,75 L551.35423,75 L551.35423,72.9702187 C557.62443,72.8491001 558.457036,71.8943511 558.457036,64.8477525 L558.457036,13.4959571 L558.457036,10.5114269 L558.457036,10.0319642 C558.457036,4.89653406 557.2702,3.58344099 552.183525,3.46399296 L551,3.46399296 L551,1.31559897 L566.501696,0 L566.501696,40.0084087 Z" id="Fill-23" fill="#429FF2"></path>
            <path d="M622.191743,15.2199773 C622.191743,18.0655784 619.82084,20.4382953 616.97559,20.4382953 C614.129511,20.4382953 611.877195,18.0655784 611.877195,15.2199773 C611.877195,12.3710577 614.129511,10 616.97559,10 C619.82084,10 622.191743,12.3710577 622.191743,15.2199773 Z M620.888949,64.9167826 C620.888949,71.915468 621.718226,72.8637251 628,72.9840202 L628,75 L605,75 L605,72.9840202 L607.132901,72.9840202 C611.40119,72.9840202 612.943645,71.440095 612.943645,67.1708637 L612.943645,63.7312537 L612.943645,42.973299 L612.943645,41.1945909 L612.943645,40.9573192 C612.943645,37.2804375 611.282603,35.6195357 607.370903,35.6195357 L605,35.6195357 L605,33.6043855 L620.888949,32.0612899 L620.888949,64.9167826 Z" id="Fill-25" fill="#429FF2"></path>
            <path d="M648.140377,32.649714 L662.848953,32.649714 L662.848953,35.4104989 L648.140377,35.4104989 L648.140377,59.5478387 C648.140377,68.6743031 649.933474,71.4367678 655.792818,71.4367678 C658.902301,71.4367678 661.055021,70.4759105 663.686122,67.5941786 L665,69.1547317 C661.291703,73.7179639 656.867505,76 652.087029,76 C645.030894,76 639.892468,70.8353921 639.892468,63.7507494 L639.892468,57.7470712 L639.892468,35.4104989 L632,35.4104989 L632,33.491304 C638.097699,30.1257838 642.401465,25.3231772 645.988494,18 L648.140377,18 L648.140377,32.649714 Z" id="Fill-27" fill="#429FF2"></path>
            <path d="M700.336184,47.2984692 C700.336184,38.9968328 696.181105,34.2520926 689.058113,34.2520926 C682.413308,34.2520926 678.615209,38.4045698 677.54593,47.2984692 L700.336184,47.2984692 Z M677.307667,49.3149838 C677.664647,57.7335797 678.615209,61.5310308 681.699348,65.919086 C684.787639,70.5435488 689.653356,73.5081819 694.162094,73.5081819 C699.031132,73.5081819 703.424474,70.6629968 709,64.1398085 L709,67.2230601 C703.896849,73.6259709 699.031132,76 691.671537,76 C678.495662,76 669,66.9849936 669,54.4139205 C669,41.8428474 678.375285,32 690.246939,32 C699.740941,32 708.406417,39.5899253 708.286871,47.8923912 L708.286871,49.3149838 L677.307667,49.3149838 Z" id="Fill-29" fill="#429FF2"></path>
            <path d="M756.801907,46.5867582 L754.998887,46.5867582 C753.317692,38.9968328 747.671701,34.1334741 740.583965,34.1334741 C732.057846,34.1334741 726.290029,41.1319659 726.290029,51.5670764 C726.290029,63.0714124 733.49623,72.6778523 742.26432,72.6778523 C748.149762,72.6778523 752.837111,70.0690747 758,64.02119 L758,66.9858231 C753.915898,72.6778523 747.070974,76 739.380831,76 C726.771451,76 718,67.3408491 718,55.0078425 C718,42.1995325 727.610788,32 739.864773,32 C742.626436,32 745.990506,32.593922 749.112605,33.5428701 C750.193073,33.8978961 751.154236,34.1334741 751.754962,34.1334741 C752.837111,34.1334741 753.915898,33.4234221 754.639291,32.119448 L756.801907,32.119448 L756.801907,46.5867582 Z" id="Fill-31" fill="#429FF2"></path>
            <path d="M777.139968,32.649714 L791.85068,32.649714 L791.85068,35.4104989 L777.139968,35.4104989 L777.139968,59.5478387 C777.139968,68.6743031 778.933855,71.4367678 784.794724,71.4367678 C787.902456,71.4367678 790.055121,70.4759105 792.686155,67.5941786 L794,69.1547317 C790.291797,73.7179639 785.869383,76 781.089029,76 C774.033072,76 768.891432,70.8353921 768.891432,63.7507494 L768.891432,57.7470712 L768.891432,35.4104989 L761,35.4104989 L761,33.491304 C767.097544,30.1257838 771.402874,25.3231772 774.988976,18 L777.139968,18 L777.139968,32.649714 Z" id="Fill-33" fill="#429FF2"></path>
            <path d="M823.587646,44.6888621 C823.467446,44.3338361 823.346411,44.098258 823.22621,43.859362 C820.960768,36.6252922 818.098497,34.1334741 812.72621,34.1334741 C808.550083,34.1334741 805.686978,36.3880552 805.686978,39.8263329 C805.686978,43.504336 807.83222,45.6378101 814.156928,48.3660357 C820.365609,51.0934319 821.914023,51.9245909 823.823038,53.703039 C826.449917,56.1940276 828,59.6331348 828,63.1908604 C828,70.1876932 821.914023,76 814.518364,76 C812.247913,76 809.385643,75.28663 806.875626,74.1021039 C805.445743,73.3903929 804.491653,73.1514969 803.777129,73.1514969 C802.581803,73.1514969 801.626043,73.8632079 801.268781,75.1680115 C801.268781,75.28663 801.149416,75.641656 801.03005,76 L799,76 L799,61.6479903 L801.03005,61.6479903 C803.178631,69.5937712 807.83222,73.8632079 814.63606,73.8632079 C818.813022,73.8632079 822.034224,70.7807858 822.034224,66.6291381 C822.034224,62.1224644 819.527546,59.9881608 809.741235,55.8390016 C802.818865,52.8718799 799.598497,49.1963653 799.598497,43.9779805 C799.598497,37.4547922 805.445743,32 812.484975,32 C813.919866,32 815.353088,32.2380665 816.661937,32.5930925 L819.527546,33.5420406 C820.122705,33.6598296 820.602671,33.7784481 821.19783,33.7784481 C822.272955,33.7784481 822.989149,33.3031446 823.587646,32.1186185 L825.493322,32.1186185 L825.493322,44.6888621 L823.587646,44.6888621 Z" id="Fill-35" fill="#429FF2"></path>
        </g>
        <g id="Group-11" transform="translate(981.000000, -32.000000)">
            <polygon id="Fill-1" fill="#FFFFFF" points="0 288 288 288 288 0 0 0"></polygon>
            <g id="Group-10">
                <path d="M70.4243,181.2812 C70.4243,200.0382 74.0413,205.2382 87.1483,205.2382 L97.0943,205.2382 C116.7543,205.2382 128.9603,200.4912 138.6773,188.7392 C147.2673,178.3412 151.5603,165.0072 151.5603,147.6052 C151.5603,123.6492 142.2963,103.7622 126.6983,93.3642 C117.6573,87.4862 107.0363,85.0012 89.6343,85.0012 L70.4243,85.0012 L70.4243,181.2812 Z M38.3333,206.3692 L39.9153,206.3692 C49.1803,206.3692 53.0223,200.4912 53.0223,185.7992 L53.0223,181.7332 L53.0223,109.1852 L53.0223,105.1172 C53.0223,90.4262 49.1803,84.5522 39.9153,84.5522 L38.3333,84.5522 L38.3333,80.7102 L90.5393,80.7102 C107.0363,80.7102 112.4633,81.1602 120.8223,83.1952 C126.0203,84.5522 131.2183,86.3582 136.1913,88.8442 C158.1143,100.1442 171.4503,122.2962 171.4503,147.6052 C171.4503,174.7262 157.2113,195.7432 132.5753,204.7842 C122.4073,208.6292 112.0073,210.2112 97.5443,210.2112 L38.3333,210.2112 L38.3333,206.3692 Z" id="Fill-2" fill="#1C1C1C"></path>
                <polygon id="Fill-4" fill="#FFFFFF" points="160.6592 105.5889 140.4292 163.9999 188.0122 163.9999"></polygon>
                <path d="M160.4414,150.2017 L178.5204,95.2847 L178.9694,95.2847 L197.0534,150.2017 L160.4414,150.2017 Z M245.1914,206.4797 L241.8024,206.2527 C234.7924,205.8037 232.0844,202.4127 226.8844,186.8137 L191.1754,79.6907 L177.6144,79.6907 L151.1004,158.2297 L157.9144,158.2297 L157.9534,158.1147 L199.7634,158.1147 L210.1594,189.5287 C212.1954,195.6317 212.6474,196.9847 212.6474,199.0217 C212.6474,203.9947 208.8064,206.7077 201.5714,206.7077 L201.5714,210.5497 L247.0004,210.5497 L247.0004,206.7077 L245.1914,206.4797 Z" id="Fill-6" fill="#429FF2"></path>
                <mask id="mask-6" fill="white">
                    <use xlink:href="#path-5"></use>
                </mask>
                <g id="Clip-9"></g>
                <polygon id="Fill-8" fill="#FFFFFF" mask="url(#mask-6)" points="147.147 166.027 171.969 166.027 171.969 158.114 147.147 158.114"></polygon>
            </g>
        </g>
    </g>
</svg>