<?xml version="1.0" encoding="utf-8"?>
<!-- Generator: Adobe Illustrator 22.1.0, SVG Export Plug-In . SVG Version: 6.00 Build 0)  -->
<svg version="1.1" id="Layer_1" xmlns="http://www.w3.org/2000/svg" xmlns:xlink="http://www.w3.org/1999/xlink" x="0px" y="0px"
	 viewBox="0 0 1200 661.6" style="enable-background:new 0 0 1200 661.6;" xml:space="preserve">
<style type="text/css">
	.st0{fill:none;stroke:#D50D54;stroke-width:3;stroke-miterlimit:10;}
	.st1{fill:none;stroke:#58595B;stroke-width:3;stroke-miterlimit:10;}
	.st2{fill:none;}
	.st3{enable-background:new    ;}
	.st4{fill:#D50D54;}
	.st5{fill:#58595B;}
	.st6{fill:#4D4F4D;}
	.st7{fill:#FFFFFF;}
	.st8{fill:#C21F4F;}
</style>
<path class="st0" d="M767.4,334.4c-2,198.7-252.1,324.8-450.8,322.8S0,525.4,2,326.7S124.5,0.6,323.2,2.6S769.4,135.7,767.4,334.4z"
	/>
<path class="st1" d="M432.4,325.4c2-198.7,252.1-324.8,450.8-322.8s316.6,131.8,314.6,330.5s-122.5,326.1-321.2,324.1
	S430.4,524.1,432.4,325.4z"/>
<rect x="2" y="280.1" class="st2" width="430.4" height="99.7"/>
<g class="st3">
	<path class="st4" d="M88.7,343.9v-4.8h12.4v5.7c0,6,2.6,8.1,6.8,8.1c4.2,0,6.8-2.2,6.8-8.4c0-6.9-2.6-11.4-11.2-18.9
		c-11-9.7-14.6-16.5-14.6-26.1c0-13.1,6.8-20.8,19.6-20.8s19.1,7.6,19.1,21v3.5h-12.4v-4.3c0-6-2.4-8.2-6.6-8.2s-6.6,2.3-6.6,8
		c0,6.1,2.7,10.5,11.4,18c11,9.7,14.5,16.4,14.5,26.8c0,13.6-6.9,21.3-19.8,21.3S88.7,357.3,88.7,343.9z"/>
	<path class="st4" d="M135.4,280.1h13.1v83.7h-13.1V280.1z"/>
	<path class="st4" d="M158.3,280.1h18.8l8.4,59.9h0.2l8.4-59.9h18.8v83.7h-12.4v-63.3h-0.2l-9.6,63.3h-11l-9.6-63.3h-0.2v63.3h-11.5
		V280.1z"/>
	<path class="st4" d="M222.6,280.1H242c13.1,0,19.6,7.3,19.6,20.7v8.2c0,13.4-6.5,20.7-19.6,20.7h-6.2v34.1h-13.1V280.1z M242,317.7
		c4.2,0,6.5-1.9,6.5-7.9v-9.9c0-6-2.3-7.9-6.5-7.9h-6.2v25.7H242z"/>
	<path class="st4" d="M268.8,280.1h13.1v71.7h21.6v12h-34.8V280.1z"/>
	<path class="st4" d="M309.9,280.1h35.9v12H323v22.1h18v12h-18v25.7h22.7v12h-35.9V280.1z"/>
</g>
<rect x="767.4" y="280.1" class="st2" width="430.4" height="99.7"/>
<g class="st3">
	<path class="st5" d="M840.4,280.1h19.4c13.1,0,19.6,7.3,19.6,20.7v8.2c0,13.4-6.5,20.7-19.6,20.7h-6.2v34.1h-13.1V280.1z
		 M859.8,317.7c4.2,0,6.5-1.9,6.5-7.9v-9.9c0-6-2.3-7.9-6.5-7.9h-6.2v25.7H859.8z"/>
	<path class="st5" d="M886.5,280.1H906c13.6,0,19.5,6.3,19.5,19.2v5.1c0,8.6-2.7,14.1-8.6,16.5v0.2c6.6,2,8.7,8.2,8.7,17.7v14.7
		c0,4.1,0.1,7.1,1.4,10.2h-13.4c-0.7-2.2-1.2-3.5-1.2-10.3v-15.3c0-7.8-2.3-10.3-8.2-10.3h-4.5v35.9h-13.1V280.1z M904.5,315.9
		c4.9,0,7.9-2.2,7.9-8.8v-6.5c0-6-2-8.6-6.7-8.6h-6v23.9H904.5z"/>
	<path class="st5" d="M934.7,280.1h35.9v12h-22.7v22.1h18v12h-18v25.7h22.7v12h-35.9V280.1z"/>
	<path class="st5" d="M977.2,344.4v-44.9c0-12.9,6.7-20.6,19.4-20.6s19.4,7.6,19.4,20.6v8.8h-12.4v-9.7c0-5.5-2.6-7.8-6.6-7.8
		s-6.6,2.3-6.6,7.8v46.7c0,5.5,2.6,7.6,6.6,7.6s6.6-2.2,6.6-7.6v-12.8h12.4v11.8c0,12.9-6.7,20.6-19.4,20.6S977.2,357.3,977.2,344.4
		z"/>
	<path class="st5" d="M1023.8,280.1h13.1v83.7h-13.1V280.1z"/>
	<path class="st5" d="M1044.5,343.9v-4.8h12.4v5.7c0,6,2.6,8.1,6.8,8.1s6.8-2.2,6.8-8.4c0-6.9-2.6-11.4-11.2-18.9
		c-11-9.7-14.6-16.5-14.6-26.1c0-13.1,6.8-20.8,19.6-20.8s19.1,7.6,19.1,21v3.5h-12.4v-4.3c0-6-2.4-8.2-6.6-8.2s-6.6,2.3-6.6,8
		c0,6.1,2.7,10.5,11.4,18c11,9.7,14.5,16.4,14.5,26.8c0,13.6-6.9,21.3-19.8,21.3C1051,364.9,1044.5,357.3,1044.5,343.9z"/>
	<path class="st5" d="M1091.2,280.1h35.9v12h-22.7v22.1h18v12h-18v25.7h22.7v12h-35.9V280.1z"/>
</g>
<g>
	<g>
		<path class="st6" d="M562.8,250.8h47.9c22.9,0,34.2,12.7,34.2,36v100.9c0,23.3-11.2,36-34.2,36h-47.9V250.8z M610.3,403
			c7.3,0,11.7-3.7,11.7-14.2v-103c0-10.4-4.4-14.2-11.7-14.2h-24.6V403H610.3z"/>
	</g>
	<g>
		<path class="st7" d="M618.9,274.8c-2-2.2-4.9-3.2-8.6-3.2h-24.6v129.3l-22.9,2.4V250.8h47.9c10.9,0,9.4-3.1,15.1,2.4L618.9,274.8z
			"/>
	</g>
	<g>
		<path class="st8" d="M548.1,236H596c22.9,0,34.2,12.7,34.2,36v101c0,23.3-11.2,36-34.2,36h-47.9V236z M595.6,388.2
			c7.3,0,11.7-3.7,11.7-14.2V271c0-10.4-4.4-14.2-11.7-14.2H571v131.3h24.6V388.2z"/>
	</g>
</g>
</svg>
