<?xml version="1.0" encoding="UTF-8"?>
<svg width="546px" height="121px" viewBox="0 0 546 121" version="1.1" xmlns="http://www.w3.org/2000/svg" xmlns:xlink="http://www.w3.org/1999/xlink">
    <!-- Generator: Sketch 51.2 (57519) - http://www.bohemiancoding.com/sketch -->
    <title>ExLab Talk</title>
    <desc>Created with Sketch.</desc>
    <defs></defs>
    <g id="Page-1" stroke="none" stroke-width="1" fill="none" fill-rule="evenodd">
        <g id="Work-Detail---Skadden" transform="translate(-220.000000, -904.000000)">
            <g id="Copy" transform="translate(220.000000, 904.000000)">
                <g id="ExLab-Talk">
                    <rect id="Rectangle-6" fill="#ECBF9E" x="0" y="0" width="546" height="121"></rect>
                    <path d="M18,117 L18,32 L54.4285714,32 L54.4285714,44.1428571 L31.3571429,44.1428571 L31.3571429,66.6071429 L49.6928571,66.6071429 L49.6928571,78.75 L31.3571429,78.75 L31.3571429,104.857143 L54.4285714,104.857143 L54.4285714,117 L18,117 Z M68.061688,117 L83.4831166,73.5285714 L68.7902595,32 L82.8759738,32 L91.861688,59.4428571 L92.1045452,59.4428571 L101.333117,32 L113.961688,32 L99.2688309,73.5285714 L114.690259,117 L100.604545,117 L90.8902595,87.3714286 L90.6474023,87.3714286 L80.6902595,117 L68.061688,117 Z M130.387662,117 L130.387662,32 L143.744805,32 L143.744805,104.857143 L165.723376,104.857143 L165.723376,117 L130.387662,117 Z M178.506493,117 L192.34935,32 L210.442207,32 L224.285064,117 L210.927921,117 L208.49935,100.121429 L208.49935,100.364286 L193.320778,100.364286 L190.892207,117 L178.506493,117 Z M194.89935,88.8285714 L206.920778,88.8285714 L200.970778,46.8142857 L200.727921,46.8142857 L194.89935,88.8285714 Z M240.103895,117 L240.103895,32 L260.261038,32 C274.103895,32 280.053895,38.4357143 280.053895,51.55 L280.053895,54.95 C280.053895,63.6928571 277.382466,69.1571429 271.432466,71.5857143 L271.432466,71.8285714 C278.596752,74.2571429 281.389609,80.5714286 281.389609,89.5571429 L281.389609,96.8428571 C281.389609,109.957143 274.468181,117 261.111038,117 L240.103895,117 Z M253.461038,66.6071429 L258.682466,66.6071429 C263.661038,66.6071429 266.696752,64.4214286 266.696752,57.6214286 L266.696752,52.8857143 C266.696752,46.8142857 264.632466,44.1428571 259.896752,44.1428571 L253.461038,44.1428571 L253.461038,66.6071429 Z M253.461038,104.857143 L261.111038,104.857143 C265.603895,104.857143 268.032466,102.792857 268.032466,96.4785714 L268.032466,89.0714286 C268.032466,81.1785714 265.482466,78.75 259.411038,78.75 L253.461038,78.75 L253.461038,104.857143 Z M337.7987,117 L337.7987,44.1428571 L323.834414,44.1428571 L323.834414,32 L365.120128,32 L365.120128,44.1428571 L351.155843,44.1428571 L351.155843,117 L337.7987,117 Z M371.831816,117 L385.674673,32 L403.767531,32 L417.610388,117 L404.253245,117 L401.824673,100.121429 L401.824673,100.364286 L386.646102,100.364286 L384.217531,117 L371.831816,117 Z M388.224673,88.8285714 L400.246102,88.8285714 L394.296102,46.8142857 L394.053245,46.8142857 L388.224673,88.8285714 Z M433.429219,117 L433.429219,32 L446.786362,32 L446.786362,104.857143 L468.764933,104.857143 L468.764933,117 L433.429219,117 Z M484.583764,117 L484.583764,32 L497.940907,32 L497.940907,67.8214286 L514.940907,32 L528.29805,32 L512.390907,63.2071429 L528.540907,117 L514.576621,117 L503.283764,79.1142857 L497.940907,89.9214286 L497.940907,117 L484.583764,117 Z" id="EXLAB-TALK" fill="#C21E4E"></path>
                </g>
            </g>
        </g>
    </g>
</svg>