<?xml version="1.0" encoding="UTF-8"?>
<svg width="512px" height="85px" viewBox="0 0 512 85" version="1.1" xmlns="http://www.w3.org/2000/svg" xmlns:xlink="http://www.w3.org/1999/xlink">
    <!-- Generator: Sketch 51.2 (57519) - http://www.bohemiancoding.com/sketch -->
    <title>EXLAB TALK</title>
    <desc>Created with Sketch.</desc>
    <defs></defs>
    <g id="Page-1" stroke="none" stroke-width="1" fill="none" fill-rule="evenodd">
        <g id="Work-Detail---Skadden" transform="translate(-235.000000, -936.000000)" fill="#C21E4E">
            <g id="Copy" transform="translate(235.000000, 936.000000)">
                <path d="M0.827274895,85 L0.827274895,0 L37.2558463,0 L37.2558463,12.1428571 L14.1844178,12.1428571 L14.1844178,34.6071429 L32.520132,34.6071429 L32.520132,46.75 L14.1844178,46.75 L14.1844178,72.8571429 L37.2558463,72.8571429 L37.2558463,85 L0.827274895,85 Z M50.8889629,85 L66.3103915,41.5285714 L51.6175344,0 L65.7032487,0 L74.6889629,27.4428571 L74.9318201,27.4428571 L84.1603915,0 L96.7889629,0 L82.0961058,41.5285714 L97.5175344,85 L83.4318201,85 L73.7175344,55.3714286 L73.4746772,55.3714286 L63.5175344,85 L50.8889629,85 Z M113.214937,85 L113.214937,0 L126.57208,0 L126.57208,72.8571429 L148.550651,72.8571429 L148.550651,85 L113.214937,85 Z M161.333768,85 L175.176625,0 L193.269482,0 L207.112339,85 L193.755196,85 L191.326625,68.1214286 L191.326625,68.3642857 L176.148053,68.3642857 L173.719482,85 L161.333768,85 Z M177.726625,56.8285714 L189.748053,56.8285714 L183.798053,14.8142857 L183.555196,14.8142857 L177.726625,56.8285714 Z M222.93117,85 L222.93117,0 L243.088313,0 C256.93117,0 262.88117,6.43571429 262.88117,19.55 L262.88117,22.95 C262.88117,31.6928571 260.209741,37.1571429 254.259741,39.5857143 L254.259741,39.8285714 C261.424027,42.2571429 264.216884,48.5714286 264.216884,57.5571429 L264.216884,64.8428571 C264.216884,77.9571429 257.295456,85 243.938313,85 L222.93117,85 Z M236.288313,34.6071429 L241.509741,34.6071429 C246.488313,34.6071429 249.524027,32.4214286 249.524027,25.6214286 L249.524027,20.8857143 C249.524027,14.8142857 247.459741,12.1428571 242.724027,12.1428571 L236.288313,12.1428571 L236.288313,34.6071429 Z M236.288313,72.8571429 L243.938313,72.8571429 C248.43117,72.8571429 250.859741,70.7928571 250.859741,64.4785714 L250.859741,57.0714286 C250.859741,49.1785714 248.309741,46.75 242.238313,46.75 L236.288313,46.75 L236.288313,72.8571429 Z M320.625975,85 L320.625975,12.1428571 L306.661689,12.1428571 L306.661689,0 L347.947403,0 L347.947403,12.1428571 L333.983117,12.1428571 L333.983117,85 L320.625975,85 Z M354.659091,85 L368.501948,0 L386.594806,0 L400.437663,85 L387.08052,85 L384.651948,68.1214286 L384.651948,68.3642857 L369.473377,68.3642857 L367.044806,85 L354.659091,85 Z M371.051948,56.8285714 L383.073377,56.8285714 L377.123377,14.8142857 L376.88052,14.8142857 L371.051948,56.8285714 Z M416.256494,85 L416.256494,0 L429.613636,0 L429.613636,72.8571429 L451.592208,72.8571429 L451.592208,85 L416.256494,85 Z M467.411039,85 L467.411039,0 L480.768182,0 L480.768182,35.8214286 L497.768182,0 L511.125324,0 L495.218182,31.2071429 L511.368182,85 L497.403896,85 L486.111039,47.1142857 L480.768182,57.9214286 L480.768182,85 L467.411039,85 Z" id="EXLAB-TALK"></path>
            </g>
        </g>
    </g>
</svg>