<?xml version="1.0" encoding="UTF-8"?>
<svg width="762px" height="113px" viewBox="0 0 762 113" version="1.1" xmlns="http://www.w3.org/2000/svg" xmlns:xlink="http://www.w3.org/1999/xlink">
    <!-- Generator: Sketch 57.1 (83088) - https://sketch.com -->
    <title>lando’lakes</title>
    <desc>Created with Sketch.</desc>
    <g id="Page-1" stroke="none" stroke-width="1" fill="none" fill-rule="evenodd">
        <g id="Work-Detail---One-North" transform="translate(-339.000000, -1162.000000)" fill="#FFFFFF" fill-rule="nonzero">
            <g id="Copy" transform="translate(272.000000, 999.000000)">
                <path d="M67.8912941,274 L67.8912941,164.8 L85.0512941,164.8 L85.0512941,258.4 L113.287294,258.4 L113.287294,274 L67.8912941,274 Z M127.749412,274 L145.533412,164.8 L168.777412,164.8 L186.561412,274 L169.401412,274 L166.281412,252.316 L166.281412,252.628 L146.781412,252.628 L143.661412,274 L127.749412,274 Z M148.809412,237.808 L164.253412,237.808 L156.609412,183.832 L156.297412,183.832 L148.809412,237.808 Z M204.923529,274 L204.923529,164.8 L226.451529,164.8 L243.143529,230.164 L243.455529,230.164 L243.455529,164.8 L258.743529,164.8 L258.743529,274 L241.115529,274 L220.523529,194.284 L220.211529,194.284 L220.211529,274 L204.923529,274 Z M281.629647,274 L281.629647,164.8 L307.837647,164.8 C324.997647,164.8 333.421647,174.316 333.421647,191.788 L333.421647,247.012 C333.421647,264.484 324.997647,274 307.837647,274 L281.629647,274 Z M298.789647,258.4 L307.525647,258.4 C312.985647,258.4 316.261647,255.592 316.261647,247.792 L316.261647,191.008 C316.261647,183.208 312.985647,180.4 307.525647,180.4 L298.789647,180.4 L298.789647,258.4 Z M414.917882,275.56 C398.069882,275.56 388.865882,265.576 388.865882,248.104 L388.865882,190.696 C388.865882,173.224 398.069882,163.24 414.917882,163.24 C431.765882,163.24 440.969882,173.224 440.969882,190.696 L440.969882,248.104 C440.969882,265.576 431.765882,275.56 414.917882,275.56 Z M414.917882,259.96 C420.377882,259.96 423.809882,256.996 423.809882,249.196 L423.809882,189.604 C423.809882,181.804 420.377882,178.84 414.917882,178.84 C409.457882,178.84 406.025882,181.804 406.025882,189.604 L406.025882,249.196 C406.025882,256.996 409.457882,259.96 414.917882,259.96 Z M461.672,200.056 L468.224,181.336 L462.608,181.336 L462.608,164.8 L479.144,164.8 L479.144,179.62 L469.628,200.056 L461.672,200.056 Z M502.030118,274 L502.030118,164.8 L519.190118,164.8 L519.190118,258.4 L547.426118,258.4 L547.426118,274 L502.030118,274 Z M561.888235,274 L579.672235,164.8 L602.916235,164.8 L620.700235,274 L603.540235,274 L600.420235,252.316 L600.420235,252.628 L580.920235,252.628 L577.800235,274 L561.888235,274 Z M582.948235,237.808 L598.392235,237.808 L590.748235,183.832 L590.436235,183.832 L582.948235,237.808 Z M639.062353,274 L639.062353,164.8 L656.222353,164.8 L656.222353,210.82 L678.062353,164.8 L695.222353,164.8 L674.786353,204.892 L695.534353,274 L677.594353,274 L663.086353,225.328 L656.222353,239.212 L656.222353,274 L639.062353,274 Z M713.740471,274 L713.740471,164.8 L760.540471,164.8 L760.540471,180.4 L730.900471,180.4 L730.900471,209.26 L754.456471,209.26 L754.456471,224.86 L730.900471,224.86 L730.900471,258.4 L760.540471,258.4 L760.540471,274 L713.740471,274 Z M803.082588,275.56 C786.234588,275.56 777.810588,265.576 777.810588,248.104 L777.810588,241.864 L794.034588,241.864 L794.034588,249.352 C794.034588,257.152 797.466588,259.96 802.926588,259.96 C808.386588,259.96 811.818588,257.152 811.818588,249.04 C811.818588,239.992 808.386588,234.22 797.154588,224.392 C782.802588,211.756 778.122588,202.864 778.122588,190.384 C778.122588,173.224 787.014588,163.24 803.706588,163.24 C820.398588,163.24 828.666588,173.224 828.666588,190.696 L828.666588,195.22 L812.442588,195.22 L812.442588,189.604 C812.442588,181.804 809.322588,178.84 803.862588,178.84 C798.402588,178.84 795.282588,181.804 795.282588,189.292 C795.282588,197.248 798.870588,203.02 810.102588,212.848 C824.454588,225.484 828.978588,234.22 828.978588,247.792 C828.978588,265.576 819.930588,275.56 803.082588,275.56 Z" id="lando’lakes"></path>
            </g>
        </g>
    </g>
</svg>