<?xml version="1.0" encoding="UTF-8"?>
<svg width="711px" height="172px" viewBox="0 0 711 172" version="1.1" xmlns="http://www.w3.org/2000/svg" xmlns:xlink="http://www.w3.org/1999/xlink">
    <!-- Generator: Sketch 57.1 (83088) - https://sketch.com -->
    <title>nikea-g</title>
    <desc>Created with Sketch.</desc>
    <g id="Page-1" stroke="none" stroke-width="1" fill="none" fill-rule="evenodd">
        <g id="Work-Detail---One-North" transform="translate(-362.000000, -1104.000000)" fill="#FFFFFF" fill-rule="nonzero">
            <g id="Copy" transform="translate(272.000000, 999.000000)">
                <path d="M90.996,274 L90.996,107.4 L123.84,107.4 L149.306,207.122 L149.782,207.122 L149.782,107.4 L173.106,107.4 L173.106,274 L146.212,274 L114.796,152.382 L114.32,152.382 L114.32,274 L90.996,274 Z M208.022,274 L208.022,107.4 L234.202,107.4 L234.202,274 L208.022,274 Z M269.118,274 L269.118,107.4 L295.298,107.4 L295.298,177.61 L328.618,107.4 L354.798,107.4 L323.62,168.566 L355.274,274 L327.904,274 L305.77,199.744 L295.298,220.926 L295.298,274 L269.118,274 Z M383.05,274 L383.05,107.4 L454.45,107.4 L454.45,131.2 L409.23,131.2 L409.23,175.23 L445.168,175.23 L445.168,199.03 L409.23,199.03 L409.23,250.2 L454.45,250.2 L454.45,274 L383.05,274 Z M531.422,274 L558.554,107.4 L594.016,107.4 L621.148,274 L594.968,274 L590.208,240.918 L590.208,241.394 L560.458,241.394 L555.698,274 L531.422,274 Z M563.552,218.784 L587.114,218.784 L575.452,136.436 L574.976,136.436 L563.552,218.784 Z M640.594,202.6 L640.594,178.8 L692.954,178.8 L692.954,202.6 L640.594,202.6 Z M761.19,276.38 C735.486,276.38 722.158,261.148 722.158,234.492 L722.158,146.908 C722.158,120.252 735.486,105.02 761.19,105.02 C786.894,105.02 800.222,120.252 800.222,146.908 L800.222,161.188 L775.47,161.188 L775.47,145.242 C775.47,133.342 770.234,128.82 761.904,128.82 C753.574,128.82 748.338,133.342 748.338,145.242 L748.338,236.396 C748.338,248.296 753.574,252.58 761.904,252.58 C770.234,252.58 775.47,248.296 775.47,236.396 L775.47,203.79 L762.38,203.79 L762.38,179.99 L800.222,179.99 L800.222,234.492 C800.222,261.148 786.894,276.38 761.19,276.38 Z" id="nikea-g"></path>
            </g>
        </g>
    </g>
</svg>