<?xml version="1.0" encoding="UTF-8"?>
<svg width="831px" height="154px" viewBox="0 0 831 154" version="1.1" xmlns="http://www.w3.org/2000/svg" xmlns:xlink="http://www.w3.org/1999/xlink">
    <!-- Generator: Sketch 51.2 (57519) - http://www.bohemiancoding.com/sketch -->
    <title>NIKE B.Y.T.</title>
    <desc>Created with Sketch.</desc>
    <defs></defs>
    <g id="Page-1" stroke="none" stroke-width="1" fill="none" fill-rule="evenodd">
        <g id="Work-Detail---One-North" transform="translate(-295.000000, -999.000000)" fill="#FFFFFF">
            <g id="Copy" transform="translate(272.000000, 999.000000)">
                <path d="M23.02,154 L23.02,0 L53.38,0 L76.92,92.18 L77.36,92.18 L77.36,0 L98.92,0 L98.92,154 L74.06,154 L45.02,41.58 L44.58,41.58 L44.58,154 L23.02,154 Z M136.96,154 L136.96,0 L161.16,0 L161.16,154 L136.96,154 Z M199.2,154 L199.2,0 L223.4,0 L223.4,64.9 L254.2,0 L278.4,0 L249.58,56.54 L278.84,154 L253.54,154 L233.08,85.36 L223.4,104.94 L223.4,154 L199.2,154 Z M310.28,154 L310.28,0 L376.28,0 L376.28,22 L334.48,22 L334.48,62.7 L367.7,62.7 L367.7,84.7 L334.48,84.7 L334.48,132 L376.28,132 L376.28,154 L310.28,154 Z M465.34,154 L465.34,0 L501.86,0 C526.94,0 537.72,11.66 537.72,35.42 L537.72,41.58 C537.72,57.42 532.88,67.32 522.1,71.72 L522.1,72.16 C535.08,76.56 540.14,88 540.14,104.28 L540.14,117.48 C540.14,141.24 527.6,154 503.4,154 L465.34,154 Z M489.54,62.7 L499,62.7 C508.02,62.7 513.52,58.74 513.52,46.42 L513.52,37.84 C513.52,26.84 509.78,22 501.2,22 L489.54,22 L489.54,62.7 Z M489.54,132 L503.4,132 C511.54,132 515.94,128.26 515.94,116.82 L515.94,103.4 C515.94,89.1 511.32,84.7 500.32,84.7 L489.54,84.7 L489.54,132 Z M574.22,154 L574.22,130.68 L597.54,130.68 L597.54,154 L574.22,154 Z M637.34,154 L637.34,88.44 L608.08,0 L633.82,0 L650.32,56.54 L650.76,56.54 L667.26,0 L690.8,0 L661.54,88.44 L661.54,154 L637.34,154 Z M701.34,154 L701.34,130.68 L724.66,130.68 L724.66,154 L701.34,154 Z M765.56,154 L765.56,22 L740.26,22 L740.26,0 L815.06,0 L815.06,22 L789.76,22 L789.76,154 L765.56,154 Z M830.66,154 L830.66,130.68 L853.98,130.68 L853.98,154 L830.66,154 Z" id="NIKE-B.Y.T."></path>
            </g>
        </g>
    </g>
</svg>