<?xml version="1.0" encoding="UTF-8"?>
<svg width="745px" height="95px" viewBox="0 0 745 95" version="1.1" xmlns="http://www.w3.org/2000/svg" xmlns:xlink="http://www.w3.org/1999/xlink">
    <!-- Generator: Sketch 57.1 (83088) - https://sketch.com -->
    <title>Logo</title>
    <desc>Created with Sketch.</desc>
    <g id="Page-1" stroke="none" stroke-width="1" fill="none" fill-rule="evenodd">
        <g id="Work-Detail---Skadden" transform="translate(-333.000000, -984.000000)" fill="#FFFFFF">
            <g id="Copy" transform="translate(272.000000, 960.000000)">
                <g id="Logo" transform="translate(61.000000, 0.000000)">
                    <text id="mash-ups" font-family="BebasNeue-Regular, Bebas Neue" font-size="130" font-weight="normal" letter-spacing="8.41176471">
                        <tspan x="278.322941" y="117">mash-ups</tspan>
                    </text>
                    <path d="M29.3660767,116.962036 C21.5890206,116.653611 15.2249575,114.5266 10.2507106,110.574611 C9.30125597,109.820329 7.03870887,107.555087 6.28026408,106.601048 C4.26227346,104.065734 2.89163825,101.598338 1.97575023,98.8576743 C-0.83904698,90.427137 0.610709447,79.3654026 6.11962403,67.2241824 C10.8373265,56.8312339 18.118876,46.5229823 30.8198292,32.245962 C32.689967,30.1445202 38.2620187,24 38.2971837,24 C38.309971,24 38.008671,24.52576 37.6258522,25.1673789 C34.3227412,30.6982461 31.4967551,37.2119169 29.958287,42.8522508 C27.4855492,51.9004363 27.7836524,59.6653839 30.8318172,65.6876528 C32.9345235,69.8354037 36.5389345,73.4286296 40.5924982,75.4158106 C47.6894315,78.8923785 58.078287,79.1808273 70.7664529,76.2579854 C71.6399831,76.0550324 114.925682,64.5666175 166.957872,50.7282632 C218.990062,36.8875118 261.570063,25.5708877 261.574858,25.5812751 C261.590842,25.5940595 140.689628,77.3166966 77.928921,104.148833 C67.9884191,108.397262 65.3302659,109.471154 60.6597166,111.109959 C48.7140113,115.304054 38.0142654,117.306416 29.3660767,116.962036" id="Fill-74"></path>
                </g>
            </g>
        </g>
    </g>
</svg>