<?xml version="1.0" encoding="UTF-8"?>
<svg width="495px" height="348px" viewBox="0 0 495 348" version="1.1" xmlns="http://www.w3.org/2000/svg" xmlns:xlink="http://www.w3.org/1999/xlink">
    <!-- Generator: Sketch 52.2 (67145) - http://www.bohemiancoding.com/sketch -->
    <title>One North</title>
    <desc>Created with Sketch.</desc>
    <g id="Page-1" stroke="none" stroke-width="1" fill="none" fill-rule="evenodd">
        <g id="Work-Detail---Skadden" transform="translate(-445.000000, -780.000000)" fill="#FFFFFF">
            <g id="Copy" transform="translate(272.000000, 786.000000)">
                <path d="M280.6,112.82 L280.6,33.18 C280.6,9.64 292.26,-5.54 315.8,-5.54 C339.56,-5.54 351.22,9.64 351.22,33.18 L351.22,112.82 C351.22,136.14 339.56,151.54 315.8,151.54 C292.26,151.54 280.6,136.14 280.6,112.82 Z M297.54,32.3 L297.54,113.7 C297.54,127.78 303.48,135.92 315.8,135.92 C328.34,135.92 334.06,127.78 334.06,113.7 L334.06,32.3 C334.06,18.44 328.34,10.08 315.8,10.08 C303.48,10.08 297.54,18.44 297.54,32.3 Z M402.68,25.48 L402.68,150 L387.28,150 L387.28,-4 L409.06,-4 L444.7,107.32 L444.7,-4 L459.88,-4 L459.88,150 L442.06,150 L402.68,25.48 Z M514.64,64.2 L552.26,64.2 L552.26,79.6 L514.64,79.6 L514.64,134.38 L560.84,134.38 L560.84,150 L497.48,150 L497.48,-4 L560.84,-4 L560.84,11.62 L514.64,11.62 L514.64,64.2 Z M188.88,215.48 L188.88,340 L173.48,340 L173.48,186 L195.26,186 L230.9,297.32 L230.9,186 L246.08,186 L246.08,340 L228.26,340 L188.88,215.48 Z M282.36,302.82 L282.36,223.18 C282.36,199.64 294.02,184.46 317.56,184.46 C341.32,184.46 352.98,199.64 352.98,223.18 L352.98,302.82 C352.98,326.14 341.32,341.54 317.56,341.54 C294.02,341.54 282.36,326.14 282.36,302.82 Z M299.3,222.3 L299.3,303.7 C299.3,317.78 305.24,325.92 317.56,325.92 C330.1,325.92 335.82,317.78 335.82,303.7 L335.82,222.3 C335.82,208.44 330.1,200.08 317.56,200.08 C305.24,200.08 299.3,208.44 299.3,222.3 Z M389.26,186 L423.58,186 C447.78,186 457.9,198.32 457.9,221.2 L457.9,233.74 C457.9,250.68 451.96,261.24 438.76,265.42 C452.84,269.6 458.12,281.04 458.12,297.54 L458.12,321.52 C458.12,328.34 458.34,334.72 461.2,340 L443.82,340 C441.84,335.6 440.96,331.64 440.96,321.3 L440.96,297.1 C440.96,279.72 432.82,274.22 418.52,274.22 L406.42,274.22 L406.42,340 L389.26,340 L389.26,186 Z M406.42,258.6 L419.18,258.6 C432.82,258.6 440.96,254.2 440.96,237.48 L440.96,222.74 C440.96,208.88 435.9,201.62 423.14,201.62 L406.42,201.62 L406.42,258.6 Z M535.1,340 L518.16,340 L518.16,201.62 L489.78,201.62 L489.78,186 L563.48,186 L563.48,201.62 L535.1,201.62 L535.1,340 Z M650.14,270.7 L612.3,270.7 L612.3,340 L595.14,340 L595.14,186 L612.3,186 L612.3,255.3 L650.14,255.3 L650.14,186 L667.3,186 L667.3,340 L650.14,340 L650.14,270.7 Z" id="One-North"></path>
            </g>
        </g>
    </g>
</svg>