<svg viewBox="0 0 586 208" xmlns="http://www.w3.org/2000/svg"><path d="M21.282 205L.834 3.4h30.528l14.112 154.944h.576L61.026 3.4h34.56l14.976 154.944h.576L125.25 3.4h27.36L132.162 205H92.706l-14.4-135.936h-.576L63.33 205H21.282zm220.268 2.88c-31.104 0-48.096-18.432-48.096-50.688V51.208C193.454 18.952 210.446.52 241.55.52c31.104 0 48.096 18.432 48.096 50.688v105.984c0 32.256-16.992 50.688-48.096 50.688zm0-28.8c10.08 0 16.416-5.472 16.416-19.872V49.192c0-14.4-6.336-19.872-16.416-19.872s-16.416 5.472-16.416 19.872v110.016c0 14.4 6.336 19.872 16.416 19.872zM337.978 205V3.4h46.944c32.832 0 46.944 15.264 46.944 46.368v12.384c0 20.736-6.624 33.984-20.736 39.744v.576c15.84 4.896 21.024 19.872 21.024 42.624v35.424c0 9.792.288 16.992 3.456 24.48h-32.256c-1.728-5.184-2.88-8.352-2.88-24.768v-36.864c0-18.72-5.472-24.768-19.872-24.768h-10.944V205h-31.68zm31.68-115.2h11.52c11.808 0 19.008-5.184 19.008-21.312V52.936c0-14.4-4.896-20.736-16.128-20.736h-14.4v57.6zM481.062 205V3.4h31.68v84.96l40.32-84.96h31.68l-37.728 74.016L585.318 205h-33.12l-26.784-89.856-12.672 25.632V205h-31.68z" fill="#FFF" fill-rule="evenodd"/></svg>