<?xml version="1.0" encoding="UTF-8"?>
<svg width="714px" height="158px" viewBox="0 0 714 158" version="1.1" xmlns="http://www.w3.org/2000/svg" xmlns:xlink="http://www.w3.org/1999/xlink">
    <!-- Generator: Sketch 52.2 (67145) - http://www.bohemiancoding.com/sketch -->
    <title>skadden</title>
    <desc>Created with Sketch.</desc>
    <g id="Page-1" stroke="none" stroke-width="1" fill="none" fill-rule="evenodd">
        <g id="Work-Detail---Skadden" transform="translate(-362.000000, -936.000000)" fill="#FFFFFF">
            <g id="Copy" transform="translate(272.000000, 883.000000)">
                <path d="M125.6,53.46 C148.92,53.46 159.92,68.64 159.92,91.96 L159.92,96.14 L143.64,96.14 L143.64,91.08 C143.64,77.22 138.36,69.08 126.04,69.08 C113.72,69.08 108.44,77.22 108.44,90.86 C108.44,125.4 160.14,128.7 160.14,172.04 C160.14,195.36 148.92,210.54 125.38,210.54 C101.84,210.54 90.84,195.36 90.84,172.04 L90.84,163.24 L106.9,163.24 L106.9,172.92 C106.9,186.78 112.62,194.92 124.94,194.92 C137.26,194.92 142.98,186.78 142.98,172.92 C142.98,138.6 91.5,135.3 91.5,91.96 C91.5,68.2 102.5,53.46 125.6,53.46 Z M254.28,209 L221.28,142.12 L212.26,157.3 L212.26,209 L195.1,209 L195.1,55 L212.26,55 L212.26,129.36 L253.18,55 L270.56,55 L231.62,125.18 L271.88,209 L254.28,209 Z M361.4,177.98 L322.46,177.98 L316.52,209 L300.68,209 L330.16,55 L355.02,55 L384.5,209 L367.34,209 L361.4,177.98 Z M341.6,74.36 L324.66,163.24 L358.98,163.24 L341.6,74.36 Z M417.92,55 L454,55 C477.98,55 488.98,69.52 488.98,93.28 L488.98,170.94 C488.98,194.48 477.98,209 454,209 L417.92,209 L417.92,55 Z M435.08,193.38 L453.78,193.38 C466.1,193.38 472.04,185.68 472.04,171.6 L472.04,92.4 C472.04,78.32 466.1,70.62 453.56,70.62 L435.08,70.62 L435.08,193.38 Z M525.04,55 L561.12,55 C585.1,55 596.1,69.52 596.1,93.28 L596.1,170.94 C596.1,194.48 585.1,209 561.12,209 L525.04,209 L525.04,55 Z M542.2,193.38 L560.9,193.38 C573.22,193.38 579.16,185.68 579.16,171.6 L579.16,92.4 C579.16,78.32 573.22,70.62 560.68,70.62 L542.2,70.62 L542.2,193.38 Z M649.32,123.2 L686.94,123.2 L686.94,138.6 L649.32,138.6 L649.32,193.38 L695.52,193.38 L695.52,209 L632.16,209 L632.16,55 L695.52,55 L695.52,70.62 L649.32,70.62 L649.32,123.2 Z M746.54,84.48 L746.54,209 L731.14,209 L731.14,55 L752.92,55 L788.56,166.32 L788.56,55 L803.74,55 L803.74,209 L785.92,209 L746.54,84.48 Z" id="skadden"></path>
            </g>
        </g>
    </g>
</svg>