<svg viewBox="0 0 699 159" xmlns="http://www.w3.org/2000/svg">
  <path d="M35.64 158.4C12.32 158.4 0 144.32 0 120.56V37.84C0 14.08 12.32 0 35.64 0s35.64 14.08 35.64 37.84v16.28H48.4V36.3c0-10.12-4.84-14.3-12.1-14.3s-12.1 4.18-12.1 14.3v86.02c0 10.12 4.84 14.08 12.1 14.08s12.1-3.96 12.1-14.08V98.78h22.88v21.78c0 23.76-12.32 37.84-35.64 37.84zm105.58 0c-23.76 0-36.74-14.08-36.74-38.72V38.72C104.48 14.08 117.46 0 141.22 0s36.74 14.08 36.74 38.72v80.96c0 24.64-12.98 38.72-36.74 38.72zm0-22c7.7 0 12.54-4.18 12.54-15.18V37.18c0-11-4.84-15.18-12.54-15.18-7.7 0-12.54 4.18-12.54 15.18v84.04c0 11 4.84 15.18 12.54 15.18zm73.02 19.8V2.2h30.36l23.54 92.18h.44V2.2h21.56v154h-24.86L236.24 43.78h-.44V156.2h-21.56zm132.86 0v-132h-25.3v-22h74.8v22h-25.3v132h-24.2zm64.66 0l25.08-154h32.78l25.08 154h-24.2l-4.4-30.58v.44h-27.5l-4.4 30.14h-22.44zm29.7-51.04h21.78l-10.78-76.12h-.44l-10.56 76.12zm118.56 53.24c-23.32 0-35.64-14.08-35.64-37.84V37.84C524.38 14.08 536.7 0 560.02 0s35.64 14.08 35.64 37.84v16.28h-22.88V36.3c0-10.12-4.84-14.3-12.1-14.3s-12.1 4.18-12.1 14.3v86.02c0 10.12 4.84 14.08 12.1 14.08s12.1-3.96 12.1-14.08V98.78h22.88v21.78c0 23.76-12.32 37.84-35.64 37.84zm89.08-2.2v-132h-25.3v-22h74.8v22h-25.3v132h-24.2z" fill="#FFF" fill-rule="evenodd"/>
</svg>