<svg viewBox="0 0 509 160" xmlns="http://www.w3.org/2000/svg"><path d="M.33 157L25.41 3h32.78l25.08 154h-24.2l-4.4-30.58v.44h-27.5L22.77 157H.33zm29.7-51.04h21.78L41.03 29.84h-.44l-10.56 76.12zm84.9 51.04V3h36.52c25.08 0 35.86 11.66 35.86 35.42v6.16c0 15.84-4.84 25.74-15.62 30.14v.44c12.98 4.4 18.04 15.84 18.04 32.12v13.2c0 23.76-12.54 36.52-36.74 36.52h-38.06zm24.2-91.3h9.46c9.02 0 14.52-3.96 14.52-16.28v-8.58c0-11-3.74-15.84-12.32-15.84h-11.66v40.7zm0 69.3h13.86c8.14 0 12.54-3.74 12.54-15.18V106.4c0-14.3-4.62-18.7-15.62-18.7h-10.78V135zm119.66 24.2c-23.76 0-36.74-14.08-36.74-38.72V39.52C222.05 14.88 235.03.8 258.79.8s36.74 14.08 36.74 38.72v80.96c0 24.64-12.98 38.72-36.74 38.72zm0-22c7.7 0 12.54-4.18 12.54-15.18V37.98c0-11-4.84-15.18-12.54-15.18-7.7 0-12.54 4.18-12.54 15.18v84.04c0 11 4.84 15.18 12.54 15.18zm108.22 22c-23.76 0-36.08-14.08-36.08-38.72V3h24.2v119.24c0 11 4.62 14.96 12.32 14.96s12.32-3.96 12.32-14.96V3h23.32v117.48c0 24.64-12.32 38.72-36.08 38.72zm92.16-2.2V25h-25.3V3h74.8v22h-25.3v132h-24.2z" fill="#FFF" fill-rule="evenodd"/></svg>