<?xml version="1.0" encoding="UTF-8"?>
<svg width="639px" height="181px" viewBox="0 0 639 181" version="1.1" xmlns="http://www.w3.org/2000/svg" xmlns:xlink="http://www.w3.org/1999/xlink">
    <!-- Generator: Sketch 57.1 (83088) - https://sketch.com -->
    <title>VOYAGE</title>
    <desc>Created with Sketch.</desc>
    <g id="Page-1" stroke="none" stroke-width="1" fill="none" fill-rule="evenodd">
        <g id="Work-Detail---One-North" transform="translate(-415.000000, -756.000000)" fill="#FFFFFF" fill-rule="nonzero">
            <path d="M441.595588,934 L415.095588,759 L442.845588,759 L460.845588,894.75 L461.345588,894.75 L479.345588,759 L504.595588,759 L478.095588,934 L441.595588,934 Z M573.272059,936.5 C546.272059,936.5 531.522059,920.5 531.522059,892.5 L531.522059,800.5 C531.522059,772.5 546.272059,756.5 573.272059,756.5 C600.272059,756.5 615.022059,772.5 615.022059,800.5 L615.022059,892.5 C615.022059,920.5 600.272059,936.5 573.272059,936.5 Z M573.272059,911.5 C582.022059,911.5 587.522059,906.75 587.522059,894.25 L587.522059,798.75 C587.522059,786.25 582.022059,781.5 573.272059,781.5 C564.522059,781.5 559.022059,786.25 559.022059,798.75 L559.022059,894.25 C559.022059,906.75 564.522059,911.5 573.272059,911.5 Z M670.448529,934 L670.448529,859.5 L637.198529,759 L666.448529,759 L685.198529,823.25 L685.698529,823.25 L704.448529,759 L731.198529,759 L697.948529,859.5 L697.948529,934 L670.448529,934 Z M741.125,934 L769.625,759 L806.875,759 L835.375,934 L807.875,934 L802.875,899.25 L802.875,899.75 L771.625,899.75 L766.625,934 L741.125,934 Z M774.875,876 L799.625,876 L787.375,789.5 L786.875,789.5 L774.875,876 Z M903.301471,936.5 C876.301471,936.5 862.301471,920.5 862.301471,892.5 L862.301471,800.5 C862.301471,772.5 876.301471,756.5 903.301471,756.5 C930.301471,756.5 944.301471,772.5 944.301471,800.5 L944.301471,815.5 L918.301471,815.5 L918.301471,798.75 C918.301471,786.25 912.801471,781.5 904.051471,781.5 C895.301471,781.5 889.801471,786.25 889.801471,798.75 L889.801471,894.5 C889.801471,907 895.301471,911.5 904.051471,911.5 C912.801471,911.5 918.301471,907 918.301471,894.5 L918.301471,860.25 L904.551471,860.25 L904.551471,835.25 L944.301471,835.25 L944.301471,892.5 C944.301471,920.5 930.301471,936.5 903.301471,936.5 Z M978.227941,934 L978.227941,759 L1053.22794,759 L1053.22794,784 L1005.72794,784 L1005.72794,830.25 L1043.47794,830.25 L1043.47794,855.25 L1005.72794,855.25 L1005.72794,909 L1053.22794,909 L1053.22794,934 L978.227941,934 Z" id="VOYAGE"></path>
        </g>
    </g>
</svg>