<?xml version="1.0" encoding="UTF-8"?>
<svg width="721px" height="160px" viewBox="0 0 721 160" version="1.1" xmlns="http://www.w3.org/2000/svg" xmlns:xlink="http://www.w3.org/1999/xlink">
    <!-- Generator: Sketch 51.2 (57519) - http://www.bohemiancoding.com/sketch -->
    <title>skadden</title>
    <desc>Created with Sketch.</desc>
    <defs></defs>
    <g id="Page-1" stroke="none" stroke-width="1" fill="none" fill-rule="evenodd">
        <g id="Work-Detail---Skadden" transform="translate(-430.000000, -829.000000)" fill="#FFFFFF">
            <g id="Copy" transform="translate(272.000000, 829.000000)">
                <path d="M194.19,159.2 C170.43,159.2 158.55,145.12 158.55,120.48 L158.55,111.68 L181.43,111.68 L181.43,122.24 C181.43,133.24 186.27,137.2 193.97,137.2 C201.67,137.2 206.51,133.24 206.51,121.8 C206.51,109.04 201.67,100.9 185.83,87.04 C165.59,69.22 158.99,56.68 158.99,39.08 C158.99,14.88 171.53,0.8 195.07,0.8 C218.61,0.8 230.27,14.88 230.27,39.52 L230.27,45.9 L207.39,45.9 L207.39,37.98 C207.39,26.98 202.99,22.8 195.29,22.8 C187.59,22.8 183.19,26.98 183.19,37.54 C183.19,48.76 188.25,56.9 204.09,70.76 C224.33,88.58 230.71,100.9 230.71,120.04 C230.71,145.12 217.95,159.2 194.19,159.2 Z M264.57,157 L264.57,3 L288.77,3 L288.77,67.9 L319.57,3 L343.77,3 L314.95,59.54 L344.21,157 L318.91,157 L298.45,88.36 L288.77,107.94 L288.77,157 L264.57,157 Z M369.27,157 L394.35,3 L427.13,3 L452.21,157 L428.01,157 L423.61,126.42 L423.61,126.86 L396.11,126.86 L391.71,157 L369.27,157 Z M398.97,105.96 L420.75,105.96 L409.97,29.84 L409.53,29.84 L398.97,105.96 Z M483.87,157 L483.87,3 L520.83,3 C545.03,3 556.91,16.42 556.91,41.06 L556.91,118.94 C556.91,143.58 545.03,157 520.83,157 L483.87,157 Z M508.07,135 L520.39,135 C528.09,135 532.71,131.04 532.71,120.04 L532.71,39.96 C532.71,28.96 528.09,25 520.39,25 L508.07,25 L508.07,135 Z M593.19,157 L593.19,3 L630.15,3 C654.35,3 666.23,16.42 666.23,41.06 L666.23,118.94 C666.23,143.58 654.35,157 630.15,157 L593.19,157 Z M617.39,135 L629.71,135 C637.41,135 642.03,131.04 642.03,120.04 L642.03,39.96 C642.03,28.96 637.41,25 629.71,25 L617.39,25 L617.39,135 Z M702.51,157 L702.51,3 L768.51,3 L768.51,25 L726.71,25 L726.71,65.7 L759.93,65.7 L759.93,87.7 L726.71,87.7 L726.71,135 L768.51,135 L768.51,157 L702.51,157 Z M802.37,157 L802.37,3 L832.73,3 L856.27,95.18 L856.71,95.18 L856.71,3 L878.27,3 L878.27,157 L853.41,157 L824.37,44.58 L823.93,44.58 L823.93,157 L802.37,157 Z" id="skadden"></path>
            </g>
        </g>
    </g>
</svg>