<?xml version="1.0" encoding="UTF-8"?>
<svg width="726px" height="186px" viewBox="0 0 726 186" version="1.1" xmlns="http://www.w3.org/2000/svg" xmlns:xlink="http://www.w3.org/1999/xlink">
    <!-- Generator: Sketch 51.2 (57519) - http://www.bohemiancoding.com/sketch -->
    <title>Group</title>
    <desc>Created with Sketch.</desc>
    <defs></defs>
    <g id="Page-1" stroke="none" stroke-width="1" fill="none" fill-rule="evenodd">
        <g id="Work-Detail---DWR" transform="translate(-354.000000, -897.000000)">
            <g id="Copy" transform="translate(272.000000, 897.000000)">
                <g id="Group" transform="translate(83.000000, 0.000000)">
                    <path d="M164.26,186 L164.26,0.250827105 L208.839801,0.250827105 C238.028957,0.250827105 252.358179,16.4375407 252.358179,46.1574084 L252.358179,140.093419 C252.358179,169.813286 238.028957,186 208.839801,186 L164.26,186 Z M193.449156,159.464404 L208.30909,159.464404 C217.596548,159.464404 223.169023,154.687997 223.169023,141.420199 L223.169023,44.8306286 C223.169023,31.5628305 217.596548,26.7864232 208.30909,26.7864232 L193.449156,26.7864232 L193.449156,159.464404 Z M308.058808,186 L289.218534,0.250827105 L317.346266,0.250827105 L330.348708,143.012334 L330.87942,143.012334 L344.67793,0.250827105 L376.520646,0.250827105 L390.319156,143.012334 L390.849868,143.012334 L403.85231,0.250827105 L429.061126,0.250827105 L410.220853,186 L373.867086,186 L360.599288,60.7519863 L360.068576,60.7519863 L346.800778,186 L308.058808,186 Z M468.044329,186 L468.044329,0.250827105 L511.297351,0.250827105 C541.54793,0.250827105 554.550373,14.3146931 554.550373,42.9731369 L554.550373,54.3834432 C554.550373,73.4890724 548.447185,85.6954466 535.444743,91.0025659 L535.444743,91.5332778 C550.039321,96.0443291 554.815728,109.842839 554.815728,130.80596 L554.815728,163.444743 C554.815728,172.466846 555.081084,179.100745 558,186 L528.280132,186 C526.687997,181.223593 525.626573,178.304677 525.626573,163.179387 L525.626573,129.213824 C525.626573,111.965687 520.584809,106.393212 507.317011,106.393212 L497.233485,106.393212 L497.233485,186 L468.044329,186 Z M497.233485,79.8576155 L507.847723,79.8576155 C518.727318,79.8576155 525.361217,75.0812082 525.361217,60.2212744 L525.361217,45.8920524 C525.361217,32.6242544 520.850165,26.7864232 510.501283,26.7864232 L497.233485,26.7864232 L497.233485,79.8576155 Z" id="DWr" fill="#FFFFFF"></path>
                    <path d="M0.25,167.5 L0.25,26.5" id="Line-3" stroke="#ECBF9E" opacity="0.0470982143" stroke-linecap="square"></path>
                    <path d="M723.64349,167.5 L723.64349,19.5" id="Line-3" stroke="#ECBF9E" opacity="0.0470982143" stroke-linecap="square"></path>
                </g>
            </g>
        </g>
    </g>
</svg>