<?xml version="1.0" encoding="UTF-8"?>
<svg width="394px" height="186px" viewBox="0 0 394 186" version="1.1" xmlns="http://www.w3.org/2000/svg" xmlns:xlink="http://www.w3.org/1999/xlink">
    <!-- Generator: Sketch 51.2 (57519) - http://www.bohemiancoding.com/sketch -->
    <title>Combined Shape</title>
    <desc>Created with Sketch.</desc>
    <defs></defs>
    <g id="Page-1" stroke="none" stroke-width="1" fill="none" fill-rule="evenodd">
        <g id="Work-Detail---DWR" transform="translate(-519.000000, -897.000000)" fill="#FFFFFF">
            <g id="Copy" transform="translate(272.000000, 897.000000)">
                <path d="M247.26,186 L247.26,0.250827105 L291.839801,0.250827105 C321.028957,0.250827105 335.358179,16.4375407 335.358179,46.1574084 L335.358179,140.093419 C335.358179,169.813286 321.028957,186 291.839801,186 L247.26,186 Z M276.449156,159.464404 L291.30909,159.464404 C300.596548,159.464404 306.169023,154.687997 306.169023,141.420199 L306.169023,44.8306286 C306.169023,31.5628305 300.596548,26.7864232 291.30909,26.7864232 L276.449156,26.7864232 L276.449156,159.464404 Z M391.058808,186 L372.218534,0.250827105 L400.346266,0.250827105 L413.348708,143.012334 L413.87942,143.012334 L427.67793,0.250827105 L459.520646,0.250827105 L473.319156,143.012334 L473.849868,143.012334 L486.85231,0.250827105 L512.061126,0.250827105 L493.220853,186 L456.867086,186 L443.599288,60.7519863 L443.068576,60.7519863 L429.800778,186 L391.058808,186 Z M551.044329,186 L551.044329,0.250827105 L594.297351,0.250827105 C624.54793,0.250827105 637.550373,14.3146931 637.550373,42.9731369 L637.550373,54.3834432 C637.550373,73.4890724 631.447185,85.6954466 618.444743,91.0025659 L618.444743,91.5332778 C633.039321,96.0443291 637.815728,109.842839 637.815728,130.80596 L637.815728,163.444743 C637.815728,172.466846 638.081084,179.100745 641,186 L611.280132,186 C609.687997,181.223593 608.626573,178.304677 608.626573,163.179387 L608.626573,129.213824 C608.626573,111.965687 603.584809,106.393212 590.317011,106.393212 L580.233485,106.393212 L580.233485,186 L551.044329,186 Z M580.233485,79.8576155 L580.233485,26.7864232 L593.501283,26.7864232 C603.850165,26.7864232 608.361217,32.6242544 608.361217,45.8920524 L608.361217,60.2212744 C608.361217,75.0812082 601.727318,79.8576155 590.847723,79.8576155 L580.233485,79.8576155 Z M83.25,167.5 L83.25,26.5 L83.25,167.5 Z M806.64349,167.5 L806.64349,19.5 L806.64349,167.5 Z" id="Combined-Shape"></path>
            </g>
        </g>
    </g>
</svg>