<?xml version="1.0" encoding="UTF-8"?>
<svg width="885px" height="160px" viewBox="0 0 885 160" version="1.1" xmlns="http://www.w3.org/2000/svg" xmlns:xlink="http://www.w3.org/1999/xlink">
    <!-- Generator: Sketch 51.2 (57519) - http://www.bohemiancoding.com/sketch -->
    <title>one north</title>
    <desc>Created with Sketch.</desc>
    <defs></defs>
    <g id="Page-1" stroke="none" stroke-width="1" fill="none" fill-rule="evenodd">
        <g id="Work-Detail---One-North" transform="translate(-267.000000, -966.000000)" fill="#FFFFFF">
            <g id="Copy" transform="translate(267.000000, 966.000000)">
                <path d="M37.68,159.2 C13.92,159.2 0.94,145.12 0.94,120.48 L0.94,39.52 C0.94,14.88 13.92,0.8 37.68,0.8 C61.44,0.8 74.42,14.88 74.42,39.52 L74.42,120.48 C74.42,145.12 61.44,159.2 37.68,159.2 Z M37.68,137.2 C45.38,137.2 50.22,133.02 50.22,122.02 L50.22,37.98 C50.22,26.98 45.38,22.8 37.68,22.8 C29.98,22.8 25.14,26.98 25.14,37.98 L25.14,122.02 C25.14,133.02 29.98,137.2 37.68,137.2 Z M110.7,157 L110.7,3 L141.06,3 L164.6,95.18 L165.04,95.18 L165.04,3 L186.6,3 L186.6,157 L161.74,157 L132.7,44.58 L132.26,44.58 L132.26,157 L110.7,157 Z M224.64,157 L224.64,3 L290.64,3 L290.64,25 L248.84,25 L248.84,65.7 L282.06,65.7 L282.06,87.7 L248.84,87.7 L248.84,135 L290.64,135 L290.64,157 L224.64,157 Z M379.7,157 L379.7,3 L410.06,3 L433.6,95.18 L434.04,95.18 L434.04,3 L455.6,3 L455.6,157 L430.74,157 L401.7,44.58 L401.26,44.58 L401.26,157 L379.7,157 Z M528.62,159.2 C504.86,159.2 491.88,145.12 491.88,120.48 L491.88,39.52 C491.88,14.88 504.86,0.8 528.62,0.8 C552.38,0.8 565.36,14.88 565.36,39.52 L565.36,120.48 C565.36,145.12 552.38,159.2 528.62,159.2 Z M528.62,137.2 C536.32,137.2 541.16,133.02 541.16,122.02 L541.16,37.98 C541.16,26.98 536.32,22.8 528.62,22.8 C520.92,22.8 516.08,26.98 516.08,37.98 L516.08,122.02 C516.08,133.02 520.92,137.2 528.62,137.2 Z M601.64,157 L601.64,3 L637.5,3 C662.58,3 673.36,14.66 673.36,38.42 L673.36,47.88 C673.36,63.72 668.3,73.84 657.52,78.24 L657.52,78.68 C669.62,82.42 673.58,93.86 673.58,111.24 L673.58,138.3 C673.58,145.78 673.8,151.28 676.22,157 L651.58,157 C650.26,153.04 649.38,150.62 649.38,138.08 L649.38,109.92 C649.38,95.62 645.2,91 634.2,91 L625.84,91 L625.84,157 L601.64,157 Z M625.84,69 L634.64,69 C643.66,69 649.16,65.04 649.16,52.72 L649.16,40.84 C649.16,29.84 645.42,25 636.84,25 L625.84,25 L625.84,69 Z M728.78,157 L728.78,25 L703.48,25 L703.48,3 L778.28,3 L778.28,25 L752.98,25 L752.98,157 L728.78,157 Z M809.94,157 L809.94,3 L834.14,3 L834.14,65.7 L860.1,65.7 L860.1,3 L884.3,3 L884.3,157 L860.1,157 L860.1,87.7 L834.14,87.7 L834.14,157 L809.94,157 Z" id="one-north"></path>
            </g>
        </g>
    </g>
</svg>