<?xml version="1.0" encoding="UTF-8"?>
<svg width="327px" height="154px" viewBox="0 0 327 154" version="1.1" xmlns="http://www.w3.org/2000/svg" xmlns:xlink="http://www.w3.org/1999/xlink">
    <!-- Generator: Sketch 51.2 (57519) - http://www.bohemiancoding.com/sketch -->
    <title>DWR</title>
    <desc>Created with Sketch.</desc>
    <defs></defs>
    <g id="Page-1" stroke="none" stroke-width="1" fill="none" fill-rule="evenodd">
        <g id="Work-Detail---DWR" transform="translate(-549.000000, -919.000000)" fill="#FFFFFF">
            <g id="Copy" transform="translate(272.000000, 919.000000)">
                <path d="M277.26,154 L277.26,0 L314.22,0 C338.42,0 350.3,13.42 350.3,38.06 L350.3,115.94 C350.3,140.58 338.42,154 314.22,154 L277.26,154 Z M301.46,132 L313.78,132 C321.48,132 326.1,128.04 326.1,117.04 L326.1,36.96 C326.1,25.96 321.48,22 313.78,22 L301.46,22 L301.46,132 Z M396.48,154 L380.86,0 L404.18,0 L414.96,118.36 L415.4,118.36 L426.84,0 L453.24,0 L464.68,118.36 L465.12,118.36 L475.9,0 L496.8,0 L481.18,154 L451.04,154 L440.04,50.16 L439.6,50.16 L428.6,154 L396.48,154 Z M529.12,154 L529.12,0 L564.98,0 C590.06,0 600.84,11.66 600.84,35.42 L600.84,44.88 C600.84,60.72 595.78,70.84 585,75.24 L585,75.68 C597.1,79.42 601.06,90.86 601.06,108.24 L601.06,135.3 C601.06,142.78 601.28,148.28 603.7,154 L579.06,154 C577.74,150.04 576.86,147.62 576.86,135.08 L576.86,106.92 C576.86,92.62 572.68,88 561.68,88 L553.32,88 L553.32,154 L529.12,154 Z M553.32,66 L562.12,66 C571.14,66 576.64,62.04 576.64,49.72 L576.64,37.84 C576.64,26.84 572.9,22 564.32,22 L553.32,22 L553.32,66 Z" id="DWR"></path>
            </g>
        </g>
    </g>
</svg>