<?xml version="1.0" encoding="UTF-8"?>
<svg width="975px" height="341px" viewBox="0 0 975 341" version="1.1" xmlns="http://www.w3.org/2000/svg" xmlns:xlink="http://www.w3.org/1999/xlink">
    <!-- Generator: Sketch 51.2 (57519) - http://www.bohemiancoding.com/sketch -->
    <title>DEMERLY ARCHITECTS</title>
    <desc>Created with Sketch.</desc>
    <defs></defs>
    <g id="Page-1" stroke="none" stroke-width="1" fill="none" fill-rule="evenodd">
        <g id="Work-Detail---Burns" transform="translate(-222.000000, -879.000000)" fill="#FFFFFF">
            <g id="Copy" transform="translate(222.000000, 879.000000)">
                <path d="M137.99,154 L137.99,0 L174.95,0 C199.15,0 211.03,13.42 211.03,38.06 L211.03,115.94 C211.03,140.58 199.15,154 174.95,154 L137.99,154 Z M162.19,132 L174.51,132 C182.21,132 186.83,128.04 186.83,117.04 L186.83,36.96 C186.83,25.96 182.21,22 174.51,22 L162.19,22 L162.19,132 Z M247.31,154 L247.31,0 L313.31,0 L313.31,22 L271.51,22 L271.51,62.7 L304.73,62.7 L304.73,84.7 L271.51,84.7 L271.51,132 L313.31,132 L313.31,154 L247.31,154 Z M347.17,154 L347.17,0 L381.71,0 L397.11,110.22 L397.55,110.22 L412.95,0 L447.49,0 L447.49,154 L424.61,154 L424.61,37.4 L424.17,37.4 L406.57,154 L386.33,154 L368.73,37.4 L368.29,37.4 L368.29,154 L347.17,154 Z M485.53,154 L485.53,0 L551.53,0 L551.53,22 L509.73,22 L509.73,62.7 L542.95,62.7 L542.95,84.7 L509.73,84.7 L509.73,132 L551.53,132 L551.53,154 L485.53,154 Z M585.39,154 L585.39,0 L621.25,0 C646.33,0 657.11,11.66 657.11,35.42 L657.11,44.88 C657.11,60.72 652.05,70.84 641.27,75.24 L641.27,75.68 C653.37,79.42 657.33,90.86 657.33,108.24 L657.33,135.3 C657.33,142.78 657.55,148.28 659.97,154 L635.33,154 C634.01,150.04 633.13,147.62 633.13,135.08 L633.13,106.92 C633.13,92.62 628.95,88 617.95,88 L609.59,88 L609.59,154 L585.39,154 Z M609.59,66 L618.39,66 C627.41,66 632.91,62.04 632.91,49.72 L632.91,37.84 C632.91,26.84 629.17,22 620.59,22 L609.59,22 L609.59,66 Z M694.05,154 L694.05,0 L718.25,0 L718.25,132 L758.07,132 L758.07,154 L694.05,154 Z M792.59,154 L792.59,88.44 L763.33,0 L789.07,0 L805.57,56.54 L806.01,56.54 L822.51,0 L846.05,0 L816.79,88.44 L816.79,154 L792.59,154 Z M0.19,338 L25.27,184 L58.05,184 L83.13,338 L58.93,338 L54.53,307.42 L54.53,307.86 L27.03,307.86 L22.63,338 L0.19,338 Z M29.89,286.96 L51.67,286.96 L40.89,210.84 L40.45,210.84 L29.89,286.96 Z M114.79,338 L114.79,184 L150.65,184 C175.73,184 186.51,195.66 186.51,219.42 L186.51,228.88 C186.51,244.72 181.45,254.84 170.67,259.24 L170.67,259.68 C182.77,263.42 186.73,274.86 186.73,292.24 L186.73,319.3 C186.73,326.78 186.95,332.28 189.37,338 L164.73,338 C163.41,334.04 162.53,331.62 162.53,319.08 L162.53,290.92 C162.53,276.62 158.35,272 147.35,272 L138.99,272 L138.99,338 L114.79,338 Z M138.99,250 L147.79,250 C156.81,250 162.31,246.04 162.31,233.72 L162.31,221.84 C162.31,210.84 158.57,206 149.99,206 L138.99,206 L138.99,250 Z M257.55,340.2 C234.23,340.2 221.91,326.12 221.91,302.36 L221.91,219.64 C221.91,195.88 234.23,181.8 257.55,181.8 C280.87,181.8 293.19,195.88 293.19,219.64 L293.19,235.92 L270.31,235.92 L270.31,218.1 C270.31,207.98 265.47,203.8 258.21,203.8 C250.95,203.8 246.11,207.98 246.11,218.1 L246.11,304.12 C246.11,314.24 250.95,318.2 258.21,318.2 C265.47,318.2 270.31,314.24 270.31,304.12 L270.31,280.58 L293.19,280.58 L293.19,302.36 C293.19,326.12 280.87,340.2 257.55,340.2 Z M327.71,338 L327.71,184 L351.91,184 L351.91,246.7 L377.87,246.7 L377.87,184 L402.07,184 L402.07,338 L377.87,338 L377.87,268.7 L351.91,268.7 L351.91,338 L327.71,338 Z M440.11,338 L440.11,184 L464.31,184 L464.31,338 L440.11,338 Z M521.27,338 L521.27,206 L495.97,206 L495.97,184 L570.77,184 L570.77,206 L545.47,206 L545.47,338 L521.27,338 Z M602.43,338 L602.43,184 L668.43,184 L668.43,206 L626.63,206 L626.63,246.7 L659.85,246.7 L659.85,268.7 L626.63,268.7 L626.63,316 L668.43,316 L668.43,338 L602.43,338 Z M736.39,340.2 C713.07,340.2 700.75,326.12 700.75,302.36 L700.75,219.64 C700.75,195.88 713.07,181.8 736.39,181.8 C759.71,181.8 772.03,195.88 772.03,219.64 L772.03,235.92 L749.15,235.92 L749.15,218.1 C749.15,207.98 744.31,203.8 737.05,203.8 C729.79,203.8 724.95,207.98 724.95,218.1 L724.95,304.12 C724.95,314.24 729.79,318.2 737.05,318.2 C744.31,318.2 749.15,314.24 749.15,304.12 L749.15,280.58 L772.03,280.58 L772.03,302.36 C772.03,326.12 759.71,340.2 736.39,340.2 Z M825.47,338 L825.47,206 L800.17,206 L800.17,184 L874.97,184 L874.97,206 L849.67,206 L849.67,338 L825.47,338 Z M938.09,340.2 C914.33,340.2 902.45,326.12 902.45,301.48 L902.45,292.68 L925.33,292.68 L925.33,303.24 C925.33,314.24 930.17,318.2 937.87,318.2 C945.57,318.2 950.41,314.24 950.41,302.8 C950.41,290.04 945.57,281.9 929.73,268.04 C909.49,250.22 902.89,237.68 902.89,220.08 C902.89,195.88 915.43,181.8 938.97,181.8 C962.51,181.8 974.17,195.88 974.17,220.52 L974.17,226.9 L951.29,226.9 L951.29,218.98 C951.29,207.98 946.89,203.8 939.19,203.8 C931.49,203.8 927.09,207.98 927.09,218.54 C927.09,229.76 932.15,237.9 947.99,251.76 C968.23,269.58 974.61,281.9 974.61,301.04 C974.61,326.12 961.85,340.2 938.09,340.2 Z" id="DEMERLY-ARCHITECTS"></path>
            </g>
        </g>
    </g>
</svg>