<?xml version="1.0" encoding="UTF-8"?>
<svg width="786px" height="341px" viewBox="0 0 786 341" version="1.1" xmlns="http://www.w3.org/2000/svg" xmlns:xlink="http://www.w3.org/1999/xlink">
    <!-- Generator: Sketch 51.2 (57519) - http://www.bohemiancoding.com/sketch -->
    <title>KIRKLAND &amp; ELLIS</title>
    <desc>Created with Sketch.</desc>
    <defs></defs>
    <g id="Page-1" stroke="none" stroke-width="1" fill="none" fill-rule="evenodd">
        <g id="Work-Detail---Burns" transform="translate(-318.000000, -909.000000)" fill="#FFFFFF">
            <g id="Copy" transform="translate(272.000000, 909.000000)">
                <path d="M46.97,154 L46.97,0 L71.17,0 L71.17,64.9 L101.97,0 L126.17,0 L97.35,56.54 L126.61,154 L101.31,154 L80.85,85.36 L71.17,104.94 L71.17,154 L46.97,154 Z M158.05,154 L158.05,0 L182.25,0 L182.25,154 L158.05,154 Z M220.29,154 L220.29,0 L256.15,0 C281.23,0 292.01,11.66 292.01,35.42 L292.01,44.88 C292.01,60.72 286.95,70.84 276.17,75.24 L276.17,75.68 C288.27,79.42 292.23,90.86 292.23,108.24 L292.23,135.3 C292.23,142.78 292.45,148.28 294.87,154 L270.23,154 C268.91,150.04 268.03,147.62 268.03,135.08 L268.03,106.92 C268.03,92.62 263.85,88 252.85,88 L244.49,88 L244.49,154 L220.29,154 Z M244.49,66 L253.29,66 C262.31,66 267.81,62.04 267.81,49.72 L267.81,37.84 C267.81,26.84 264.07,22 255.49,22 L244.49,22 L244.49,66 Z M328.95,154 L328.95,0 L353.15,0 L353.15,64.9 L383.95,0 L408.15,0 L379.33,56.54 L408.59,154 L383.29,154 L362.83,85.36 L353.15,104.94 L353.15,154 L328.95,154 Z M440.03,154 L440.03,0 L464.23,0 L464.23,132 L504.05,132 L504.05,154 L440.03,154 Z M530.21,154 L555.29,0 L588.07,0 L613.15,154 L588.95,154 L584.55,123.42 L584.55,123.86 L557.05,123.86 L552.65,154 L530.21,154 Z M559.91,102.96 L581.69,102.96 L570.91,26.84 L570.47,26.84 L559.91,102.96 Z M644.81,154 L644.81,0 L675.17,0 L698.71,92.18 L699.15,92.18 L699.15,0 L720.71,0 L720.71,154 L695.85,154 L666.81,41.58 L666.37,41.58 L666.37,154 L644.81,154 Z M758.75,154 L758.75,0 L795.71,0 C819.91,0 831.79,13.42 831.79,38.06 L831.79,115.94 C831.79,140.58 819.91,154 795.71,154 L758.75,154 Z M782.95,132 L795.27,132 C802.97,132 807.59,128.04 807.59,117.04 L807.59,36.96 C807.59,25.96 802.97,22 795.27,22 L782.95,22 L782.95,132 Z M171.7,340.2 C153.88,340.2 144.86,327.66 144.86,305 L144.86,288.94 C144.86,273.32 149.7,262.1 162.68,256.82 L162.68,256.38 C151.24,251.54 145.96,241.42 145.96,224.92 L145.96,222.06 C145.96,197.42 157.84,184 182.04,184 L209.76,184 L209.76,206 L182.48,206 C174.78,206 170.16,209.96 170.16,220.96 L170.16,230.42 C170.16,242.74 175.66,246.7 184.68,246.7 L194.14,246.7 L194.14,229.54 L217.9,229.54 L217.9,246.7 L224.72,246.7 L224.72,268.7 L217.9,268.7 L217.9,319.3 C217.9,326.78 218.12,332.28 220.54,338 L196.34,338 C195.24,334.92 194.58,332.72 194.14,325.9 L193.7,325.9 C188.64,334.92 182.48,340.2 171.7,340.2 Z M180.72,318.2 C187.98,318.2 192.82,314.02 194.14,304.34 L194.14,268.7 L184.9,268.7 C173.9,268.7 169.06,273.98 169.06,288.28 L169.06,303.9 C169.06,314.9 173.9,318.2 180.72,318.2 Z M313.34,338 L313.34,184 L379.34,184 L379.34,206 L337.54,206 L337.54,246.7 L370.76,246.7 L370.76,268.7 L337.54,268.7 L337.54,316 L379.34,316 L379.34,338 L313.34,338 Z M413.2,338 L413.2,184 L437.4,184 L437.4,316 L477.22,316 L477.22,338 L413.2,338 Z M508.88,338 L508.88,184 L533.08,184 L533.08,316 L572.9,316 L572.9,338 L508.88,338 Z M604.56,338 L604.56,184 L628.76,184 L628.76,338 L604.56,338 Z M698.26,340.2 C674.5,340.2 662.62,326.12 662.62,301.48 L662.62,292.68 L685.5,292.68 L685.5,303.24 C685.5,314.24 690.34,318.2 698.04,318.2 C705.74,318.2 710.58,314.24 710.58,302.8 C710.58,290.04 705.74,281.9 689.9,268.04 C669.66,250.22 663.06,237.68 663.06,220.08 C663.06,195.88 675.6,181.8 699.14,181.8 C722.68,181.8 734.34,195.88 734.34,220.52 L734.34,226.9 L711.46,226.9 L711.46,218.98 C711.46,207.98 707.06,203.8 699.36,203.8 C691.66,203.8 687.26,207.98 687.26,218.54 C687.26,229.76 692.32,237.9 708.16,251.76 C728.4,269.58 734.78,281.9 734.78,301.04 C734.78,326.12 722.02,340.2 698.26,340.2 Z" id="KIRKLAND-&amp;-ELLIS"></path>
            </g>
        </g>
    </g>
</svg>