<?xml version="1.0" encoding="UTF-8"?>
<svg width="1386px" height="1766px" viewBox="0 0 1386 1766" version="1.1" xmlns="http://www.w3.org/2000/svg" xmlns:xlink="http://www.w3.org/1999/xlink">
    <!-- Generator: Sketch 51.2 (57519) - http://www.bohemiancoding.com/sketch -->
    <title>Design System Copy</title>
    <desc>Created with Sketch.</desc>
    <defs>
        <polygon id="path-1" points="0 0.34141196 42.7709288 0.34141196 42.7709288 51.7367608 0 51.7367608"></polygon>
        <polygon id="path-3" points="0.2907 0.0630635571 38.6697 0.0630635571 38.6697 52.9993907 0.2907 52.9993907"></polygon>
        <polygon id="path-5" points="0 173 260 173 260 0 0 0"></polygon>
        <polygon id="path-7" points="0 242 899.651445 242 899.651445 0.438300429 0 0.438300429"></polygon>
    </defs>
    <g id="Design-System-Copy" stroke="none" stroke-width="1" fill="none" fill-rule="evenodd">
        <rect id="background" fill="#FFFFFF" x="0" y="0" width="1386" height="1768"></rect>
        <g id="New-Logo" transform="translate(291.000000, 152.000000)">
            <g id="Group-3" transform="translate(0.000000, 1.000000)">
                <mask id="mask-2" fill="white">
                    <use xlink:href="#path-1"></use>
                </mask>
                <g id="Clip-2"></g>
                <path d="M10.4024126,42.8527076 L11.5661154,42.8527076 C23.4940697,42.8527076 31.6430202,38.5942359 31.6430202,26.4765587 C31.6430202,15.1695819 25.0214297,9.22546512 13.6025954,9.22546512 L10.4024126,9.22546512 L10.4024126,42.8527076 Z M-0.00121219048,0.34141196 L14.8390297,0.34141196 C28.0064488,0.34141196 42.7709288,7.24001384 42.7709288,25.8188206 C42.7709288,44.8350997 28.1488811,51.7367608 14.1844469,51.7367608 L-0.00121219048,51.7367608 L-0.00121219048,0.34141196 Z" id="Fill-1" fill="#F9303D" mask="url(#mask-2)"></path>
            </g>
            <polygon id="Fill-4" fill="#F9303D" points="52 53 52 1 84 1 84 9.99113148 62.1935604 9.99113148 62.1935604 21.7275757 84 21.7275757 84 30.7156122 62.1935604 30.7156122 62.1935604 44.0119636 84 44.0119636 84 53"></polygon>
            <g id="Group-8" transform="translate(91.000000, 1.000000)">
                <mask id="mask-4" fill="white">
                    <use xlink:href="#path-3"></use>
                </mask>
                <g id="Clip-7"></g>
                <path d="M20.8827,8.98225344 C17.4267,8.98225344 14.3277,10.736968 14.3277,14.1032174 C14.3277,18.0513252 19.0827,19.1480218 22.9707,20.5371709 C30.0987,23.0199701 38.6697,26.3862195 38.6697,37.1338463 C38.6697,48.2500851 28.3707,52.9993907 19.5867,52.9993907 C11.8107,52.9993907 5.7627,50.0017533 0.2907,44.4482035 L7.1307,37.6456381 C11.2347,41.666859 14.4027,44.0795916 19.6587,44.0795916 C23.6937,44.0795916 27.6507,42.1055377 27.6507,37.572525 C27.6507,33.1857385 23.0427,31.504137 17.9307,29.6031962 C11.3787,27.1173506 4.0347,24.1897799 4.0347,14.3926234 C4.0347,4.66858007 12.1707,0.0624542812 20.5227,0.0624542812 C27.0027,0.0624542812 32.1147,2.18273441 37.2267,6.13084223 L31.3227,13.5914256 C28.5147,11.178693 24.7707,8.98225344 20.8827,8.98225344" id="Fill-6" fill="#F9303D" mask="url(#mask-4)"></path>
            </g>
            <mask id="mask-6" fill="white">
                <use xlink:href="#path-5"></use>
            </mask>
            <g id="Clip-10"></g>
            <polygon id="Fill-9" fill="#F9303D" mask="url(#mask-6)" points="137 53 148 53 148 1 137 1"></polygon>
            <path d="M183.52335,30.813374 L183.52335,22.1232664 L206,22.1232664 L206,41.7298728 C200.721826,48.7681418 192.700688,52 183.956925,52 C168.637274,52 157,41.4425965 157,26.0014962 C157,11.2755942 169.067838,0 183.956925,0 C192.483901,0 199.6409,3.51913449 205.202102,9.91103182 L198.048114,16.0874719 C194.507251,11.9937849 189.734915,8.9773839 183.956925,8.9773839 C174.779587,8.9773839 168.056163,16.4465673 168.056163,26.0014962 C168.056163,36.0561662 174.343001,43.0226161 183.956925,43.0226161 C188.075888,43.0226161 192.483901,41.3707775 195.663451,38.3543765 L195.663451,30.813374 L183.52335,30.813374 Z" id="Fill-11" fill="#F9303D" mask="url(#mask-6)"></path>
            <polygon id="Fill-12" fill="#F9303D" mask="url(#mask-6)" points="249.644162 53 226.370873 20.4616987 226.370873 53 216 53 216 1 225.138331 1 248.629127 33.6094875 248.629127 1 259 1 259 53"></polygon>
            <polygon id="Fill-13" fill="#F9303D" mask="url(#mask-6)" points="56.6569038 96.2811142 56.80219 96.2811142 65.3740764 63 77 63 62.3957091 115 52.0773613 115 42.851687 80.8275103 42.7094276 80.8275103 33.190154 115 23.2380486 115 9 63 20.6228968 63 28.9768539 96.2811142 29.1221401 96.2811142 38.2025283 63 47.9367044 63"></polygon>
            <polygon id="Fill-14" fill="#F9303D" mask="url(#mask-6)" points="84 115 95 115 95 63 84 63"></polygon>
            <polygon id="Fill-15" fill="#F9303D" mask="url(#mask-6)" points="121.470263 71.9885714 121.470263 115 111.532632 115 111.532632 71.9885714 100 71.9885714 100 63 133 63 133 71.9885714"></polygon>
            <polygon id="Fill-16" fill="#F9303D" mask="url(#mask-6)" points="173.451265 115 173.451265 92.7156122 151.548735 92.7156122 151.548735 115 141 115 141 63 151.548735 63 151.548735 83.7275757 173.451265 83.7275757 173.451265 63 184 63 184 115"></polygon>
            <polygon id="Fill-17" fill="#F9303D" mask="url(#mask-6)" points="195 115 206 115 206 63 195 63"></polygon>
            <polygon id="Fill-18" fill="#F9303D" mask="url(#mask-6)" points="249.647183 115 226.370873 82.4616987 226.370873 115 216 115 216 63 225.138331 63 248.629127 95.6094875 248.629127 63 259 63 259 115"></polygon>
            <path d="M41.329193,143.284388 L45.3730134,143.284388 C50.5722111,143.284388 54.4716093,141.353074 54.4716093,136.821915 C54.4716093,132.736444 51.3665329,129.988036 46.7450239,129.988036 L41.329193,129.988036 L41.329193,143.284388 Z M47.0338682,121 C55.1937201,121 65.5229131,125.30522 65.5229131,136.599071 C65.5229131,144.695732 60.1792933,149.15261 54.5468292,151.087019 C59.0239161,157.546396 66.5338682,168.171716 70,173 L56.9989971,173 L43.13447,152.272424 L41.329193,152.272424 L41.329193,173 L31,173 L31,121 L47.0338682,121 Z" id="Fill-19" fill="#F9303D" mask="url(#mask-6)"></path>
            <polygon id="Fill-20" fill="#F9303D" mask="url(#mask-6)" points="76 173 76 121 108 121 108 129.991131 86.1935604 129.991131 86.1935604 141.727576 108 141.727576 108 150.715612 86.1935604 150.715612 86.1935604 164.011964 108 164.011964 108 173"></polygon>
            <path d="M134.272539,154.649426 L146.580101,154.649426 L140.608984,137.193322 L140.535305,137.193322 L134.272539,154.649426 Z M152.842867,173 L149.527285,163.343432 L131.177996,163.343432 L127.715055,173 L116,173 L137.072364,121 L145.619197,121 L165,173 L152.842867,173 Z" id="Fill-21" fill="#F9303D" mask="url(#mask-6)"></path>
            <path d="M194.263617,164.022616 C198.134058,164.022616 202.010589,162.514416 205.153229,159.854118 L211,167.326293 C206.030244,171.063878 200.110388,173 193.822064,173 C178.474289,173 167,162.370777 167,147.001496 C167,132.275594 179.20818,121 194.263617,121 C200.110388,121 204.933975,122.795477 209.976815,125.883697 L204.933975,133.855614 C201.86442,131.557403 198.210188,129.977384 194.263617,129.977384 C184.978822,129.977384 178.184996,137.446567 178.184996,147.001496 C178.184996,157.056166 184.251021,164.022616 194.263617,164.022616" id="Fill-22" fill="#F9303D" mask="url(#mask-6)"></path>
            <polygon id="Fill-23" fill="#F9303D" mask="url(#mask-6)" points="249.454338 173 249.454338 150.715612 227.548735 150.715612 227.548735 173 217 173 217 121 227.548735 121 227.548735 141.727576 249.454338 141.727576 249.454338 121 260 121 260 173"></polygon>
        </g>
        <g id="Shortened-Logo" transform="translate(723.000000, 152.000000)" fill="#F9303D">
            <path d="M34.539181,143.095714 L38.402579,143.095714 C78.002409,143.095714 105.056256,128.761429 105.056256,87.9725595 C105.056256,49.9125595 83.0731189,29.9042857 45.1635256,29.9042857 L34.539181,29.9042857 L34.539181,143.095714 Z M0,0 L49.268386,0 C92.9831373,0 142,23.221131 142,85.7585714 C142,149.768571 93.4560011,173 47.0952246,173 L0,173 L0,0 Z" id="Fill-1"></path>
            <polygon id="Fill-13" points="296.192469 112.723707 296.683878 112.723707 325.677023 2 365 2 315.603134 175 280.70284 175 249.498353 61.3107553 249.017182 61.3107553 216.819639 175 183.158106 175 135 2 174.312739 2 202.568771 112.723707 203.06018 112.723707 233.773257 2 266.697676 2"></polygon>
            <path d="M408.225197,76.1384441 L422.015661,76.1384441 C439.746258,76.1384441 453.044206,69.7131123 453.044206,54.6382953 C453.044206,41.0462472 442.4551,31.9025058 426.694569,31.9025058 L408.225197,31.9025058 L408.225197,76.1384441 Z M427.679602,2 C455.506789,2 490.731986,16.3231355 490.731986,53.8969109 C490.731986,80.8338789 472.508872,95.6615678 453.300725,102.097197 C468.568739,123.587048 494.179602,158.93667 506,175 L461.663246,175 L414.381654,106.04095 L408.225197,106.04095 L408.225197,175 L373,175 L373,2 L427.679602,2 Z" id="Fill-19"></path>
        </g>
        <g id="Palette" transform="translate(310.000000, 1031.000000)">
            <circle id="Oval" fill="#F9303D" cx="95.5" cy="96.5" r="95.5"></circle>
            <circle id="Oval" fill="#FFF2DA" cx="351.5" cy="96.5" r="95.5"></circle>
            <circle id="Oval" stroke="#979797" cx="607.5" cy="96.5" r="95.5"></circle>
            <ellipse id="Oval" fill="#4A4A4A" cx="877" cy="41.5" rx="42" ry="40.5"></ellipse>
            <ellipse id="Oval" fill="#1BCBB4" cx="877" cy="151.5" rx="42" ry="40.5"></ellipse>
            <path d="M769.5,0.5 L769.5,191.5" id="Line-9" stroke="#979797" stroke-linecap="square"></path>
        </g>
        <g id="Typography" transform="translate(310.000000, 1450.000000)" font-size="26" letter-spacing="1.09687495">
            <text id="The-quick-brown-fox" font-family="SoleilLt, Soleil" font-weight="300">
                <tspan x="0" y="25" fill="#4A4A4A">The quick brown fox jumps over the lazy dog.    </tspan>
                <tspan x="605.175998" y="25" fill="#F9303D">1234567890!@#$%^&amp;*</tspan>
            </text>
            <text id="The-quick-brown-fox" font-family="SoleilLt-Italic, Soleil" font-style="italic" font-weight="300">
                <tspan x="0" y="94" fill="#4A4A4A">The quick brown fox jumps over the lazy dog.    </tspan>
                <tspan x="603.641998" y="94" fill="#F9303D">1234567890!@#$%^&amp;*</tspan>
            </text>
            <text id="The-quick-brown-fox" font-family="Soleil-Bold, Soleil" font-weight="bold">
                <tspan x="0" y="163" fill="#4A4A4A">The quick brown fox jumps over the lazy dog.    </tspan>
                <tspan x="639.105998" y="163" fill="#F9303D">1234567890!@#$%^&amp;*</tspan>
            </text>
        </g>
        <g id="Icons" transform="translate(329.000000, 556.000000)">
            <polygon id="Fill-1" fill="#F9303D" points="389 54 430 54 430 38 389 38"></polygon>
            <polygon id="Fill-2" fill="#F9303D" points="414 91 430 91 430 38 414 38"></polygon>
            <polygon id="Fill-3" fill="#F9303D" points="542 91 558 91 558 45 542 45"></polygon>
            <polygon id="Fill-4" fill="#F9303D" points="673 24.8454912 673 91 657 91 657 10"></polygon>
            <polygon id="Fill-5" fill="#F9303D" points="679 54 747 54 747 38 679 38"></polygon>
            <polygon id="Fill-6" fill="#F9303D" points="732 91 748 91 748 38 732 38"></polygon>
            <polygon id="Fill-7" fill="#F9303D" points="558.29509 22 534.536988 22 505 22 519.80182 38 534.536988 38 558.29509 38 581.255459 38 596 22"></polygon>
            <polyline id="Fill-8" fill="#F9303D" points="576 91 561.088752 75 557.782952 75 538.854595 75 524 91 561.984707 91"></polyline>
            <polygon id="Fill-9" fill="#F9303D" points="366 91 382 91 382 14.801989 366 0"></polygon>
            <polygon id="Fill-10" fill="#F9303D" points="809 38 900 38 900 22 809 22"></polygon>
            <polygon id="Fill-11" fill="#F9303D" points="809 83 900 83 900 45 809 45"></polygon>
            <polygon id="Fill-12" fill="#F9303D" points="809 91 825 91 825 79 809 79"></polygon>
            <polygon id="Fill-13" fill="#F9303D" points="884 91 900 91 900 79 884 79"></polygon>
            <polygon id="Fill-14" fill="#FFFFFF" points="857.254457 61 847.334094 61 835 61 841.180474 68 847.334094 68 857.254457 68 866.842248 68 873 61"></polygon>
            <polygon id="Fill-15" fill="#F9303D" points="353 166 444 166 444 150 353 150"></polygon>
            <polygon id="Fill-16" fill="#F9303D" points="353 189 444 189 444 173 353 173"></polygon>
            <polygon id="Fill-17" fill="#F9303D" points="353 212 444 212 444 196 353 196"></polygon>
            <polygon id="Fill-18" fill="#F9303D" points="353 235 444 235 444 219 353 219"></polygon>
            <polygon id="Fill-19" fill="#F9303D" points="353 241 369 241 369 229 353 229"></polygon>
            <polygon id="Fill-20" fill="#F9303D" points="428 241 444 241 444 229 428 229"></polygon>
            <polygon id="Fill-21" fill="#F9303D" points="548 241 552 241 552 196 548 196"></polygon>
            <polygon id="Fill-22" fill="#F9303D" points="556.666938 234 546.745543 234 537.157752 234 531 241 546.745543 241 556.666938 241 569 241 562.818493 234"></polygon>
            <polygon id="Fill-23" fill="#F9303D" points="542 150 520 189 542 189"></polygon>
            <polygon id="Fill-24" fill="#F9303D" points="542 189 558 189 558 150 542 150"></polygon>
            <polygon id="Fill-25" fill="#F9303D" points="558 150 580 189 558 189"></polygon>
            <polygon id="Fill-26" fill="#F9303D" points="838 211 869 211 869 180 838 180"></polygon>
            <polygon id="Fill-27" fill="#F9303D" points="809 160 900 160 900 150 809 150"></polygon>
            <polygon id="Fill-28" fill="#F9303D" points="890 242 900 242 900 151 890 151"></polygon>
            <polygon id="Fill-29" fill="#F9303D" points="809 241 819 241 819 150 809 150"></polygon>
            <polygon id="Fill-30" fill="#F9303D" points="809 242 900 242 900 232 809 232"></polygon>
            <polygon id="Fill-31" fill="#F9303D" points="657 240 748 240 748 168 657 168"></polygon>
            <polygon id="Fill-32" fill="#F9303D" points="657 161 661 161 661 150 657 150"></polygon>
            <polygon id="Fill-33" fill="#F9303D" points="668 161 672 161 672 150 668 150"></polygon>
            <polygon id="Fill-34" fill="#F9303D" points="679 161 683 161 683 150 679 150"></polygon>
            <polygon id="Fill-35" fill="#F9303D" points="690 161 694 161 694 150 690 150"></polygon>
            <polygon id="Fill-36" fill="#F9303D" points="700 161 704 161 704 150 700 150"></polygon>
            <polygon id="Fill-37" fill="#F9303D" points="712 161 716 161 716 150 712 150"></polygon>
            <polygon id="Fill-38" fill="#F9303D" points="723 161 727 161 727 150 723 150"></polygon>
            <polygon id="Fill-39" fill="#F9303D" points="733 161 737 161 737 150 733 150"></polygon>
            <polygon id="Fill-40" fill="#F9303D" points="744 161 748 161 748 150 744 150"></polygon>
            <polygon id="Fill-41" fill="#F9303D" points="878 222 881 222 881 168 878 168"></polygon>
            <polygon id="Fill-42" fill="#F9303D" points="827 171 881 171 881 168 827 168"></polygon>
            <polygon id="Fill-43" fill="#F9303D" points="827 222 830 222 830 168 827 168"></polygon>
            <polygon id="Fill-44" fill="#F9303D" points="827 222 881 222 881 219 827 219"></polygon>
            <polygon id="Fill-45" fill="#FFFFFF" points="669 241 671 241 671 181 669 181"></polygon>
            <polygon id="Fill-46" fill="#FFFFFF" points="734 241 736 241 736 181 734 181"></polygon>
            <polygon id="Fill-47" fill="#FFFFFF" points="669 183 736 183 736 181 669 181"></polygon>
            <g id="Group-64">
                <path d="M192.365376,5.48301373 C171.512428,5.48301373 154.608035,22.3575803 154.608035,43.1747734 C154.608035,51.3207219 157.223757,58.8424558 161.624913,65.0077433 L141.408728,85.1872197 L152.116127,95.8746876 L172.714162,75.3140352 C172.719364,75.3171511 172.725607,75.320267 172.73185,75.3233828 L183.540173,64.3970309 C175.20711,60.9404815 169.345145,52.7426017 169.345145,43.1747734 C169.345145,30.4827562 179.651965,20.1951597 192.365376,20.1951597 C205.079827,20.1951597 215.386647,30.4827562 215.386647,43.1747734 C215.386647,55.8657519 205.079827,66.1543871 192.365376,66.1543871 C192.049075,66.1543871 191.741098,66.1190738 191.42896,66.1066103 L179.201445,78.4683442 C183.298786,80.0055116 187.726994,80.8654944 192.365376,80.8654944 C213.219364,80.8654944 230.123757,63.9909279 230.123757,43.1747734 C230.123757,22.3575803 213.219364,5.48301373 192.365376,5.48301373" id="Fill-48" fill="#4A4A4A"></path>
                <path d="M46.1173526,162.193905 C54.2829017,162.193905 60.9023237,168.801647 60.9023237,176.953827 C60.9023237,185.104969 54.2829017,191.712712 46.1173526,191.712712 C37.9518035,191.712712 31.3323815,185.104969 31.3323815,176.953827 C31.3323815,168.801647 37.9518035,162.193905 46.1173526,162.193905 M46.1173526,202.661913 C60.340474,202.661913 71.8708786,191.151853 71.8708786,176.953827 C71.8708786,162.754763 60.340474,151.244703 46.1173526,151.244703 C31.8931908,151.244703 20.3627861,162.754763 20.3627861,176.953827 C20.3627861,191.151853 31.8931908,202.661913 46.1173526,202.661913" id="Fill-50" fill="#4A4A4A"></path>
                <polygon id="Fill-52" fill="#4A4A4A" points="82.5112717 207.672352 82.5112717 207.629768 10.1367052 207.629768 10.1367052 207.663004 2.98352601 207.702472 12.3591329 242 25.1786705 242 19.2282659 219.396369 71.687341 219.396369 65.7369364 242 78.556474 242 87.9320809 207.702472"></polygon>
                <polygon id="Fill-54" fill="#4A4A4A" points="171.31526 169.528167 176.457225 182.166175 215.972948 182.166175 207.264277 202.078724 174.371098 202.078724 160.19896 169.62372 159.892023 169.757703 159.892023 169.528167 138.668671 169.528167 138.668671 182.166175 151.820116 182.166175 166.006821 214.716733 215.398613 214.63572 215.586936 214.716733 215.622312 214.63572 215.70763 214.63572 215.70763 214.437342 230.584162 180.366235 235.376532 169.528167"></polygon>
                <path d="M175.651908,219.202769 C171.440116,219.202769 168.026358,222.610503 168.026358,226.814864 C168.026358,231.019224 171.440116,234.426958 175.651908,234.426958 C179.863699,234.426958 183.277457,231.019224 183.277457,226.814864 C183.277457,222.610503 179.863699,219.202769 175.651908,219.202769" id="Fill-56" fill="#4A4A4A"></path>
                <path d="M208.081977,219.202769 C203.871225,219.202769 200.456428,222.610503 200.456428,226.814864 C200.456428,231.019224 203.871225,234.426958 208.081977,234.426958 C212.293769,234.426958 215.707526,231.019224 215.707526,226.814864 C215.707526,222.610503 212.293769,219.202769 208.081977,219.202769" id="Fill-58" fill="#4A4A4A"></path>
                <mask id="mask-8" fill="white">
                    <use xlink:href="#path-7"></use>
                </mask>
                <g id="Clip-61"></g>
                <polygon id="Fill-60" fill="#4A4A4A" mask="url(#mask-8)" points="0 33.0875279 90.9156069 33.0875279 90.9156069 21.48503 0 21.48503"></polygon>
                <polygon id="Fill-62" fill="#4A4A4A" mask="url(#mask-8)" points="0 56.480515 82.1018497 56.480515 82.1018497 44.8780172 0 44.8780172"></polygon>
                <polygon id="Fill-63" fill="#4A4A4A" mask="url(#mask-8)" points="-0.00104046243 79.8735021 73.3286705 79.8735021 73.3286705 68.2710043 -0.00104046243 68.2710043"></polygon>
            </g>
        </g>
        <g id="Labels" transform="translate(143.000000, 141.000000)">
            <g id="Logos">
                <path d="M36.25,1.5 L36.25,192.5" id="Line-9" stroke="#979797" stroke-linecap="square"></path>
                <text id="LOGOS" transform="translate(12.500000, 96.500000) rotate(-90.000000) translate(-12.500000, -96.500000) " font-family="SoleilLt, Soleil" font-size="20" font-weight="300" letter-spacing="0.84375" fill="#9B9B9B">
                    <tspan x="-84" y="103">LOGOS</tspan>
                </text>
            </g>
            <g id="Icons" transform="translate(0.000000, 454.000000)">
                <path d="M36.25,1.5 L36.25,192.5" id="Line-9" stroke="#979797" stroke-linecap="square"></path>
                <text id="ICONOGRAPHY" transform="translate(12.500000, 96.500000) rotate(-90.000000) translate(-12.500000, -96.500000) " font-family="SoleilLt, Soleil" font-size="20" font-weight="300" letter-spacing="0.84375" fill="#9B9B9B">
                    <tspan x="-84" y="103">ICONOGRAPHY</tspan>
                </text>
            </g>
            <g id="Palette" transform="translate(0.000000, 887.000000)">
                <path d="M36.25,1.5 L36.25,192.5" id="Line-9" stroke="#979797" stroke-linecap="square"></path>
                <text id="PALETTE" transform="translate(12.500000, 96.500000) rotate(-90.000000) translate(-12.500000, -96.500000) " font-family="SoleilLt, Soleil" font-size="20" font-weight="300" letter-spacing="0.84375" fill="#9B9B9B">
                    <tspan x="-84" y="103">PALETTE</tspan>
                </text>
            </g>
            <g id="Typography" transform="translate(0.000000, 1294.000000)">
                <path d="M36.25,1.5 L36.25,192.5" id="Line-9" stroke="#979797" stroke-linecap="square"></path>
                <text id="TYPOGRAPHY" transform="translate(12.500000, 96.500000) rotate(-90.000000) translate(-12.500000, -96.500000) " font-family="SoleilLt, Soleil" font-size="20" font-weight="300" letter-spacing="0.84375" fill="#9B9B9B">
                    <tspan x="-84" y="103">TYPOGRAPHY</tspan>
                </text>
            </g>
        </g>
    </g>
</svg>