<svg viewBox="0 0 36 49" xmlns="http://www.w3.org/2000/svg">
  <path d="M28.698 26.971c-1.056.665-2.331 2.168-3.308 2.064-.977-.105-1.355-2.746-3.167-4.25.229-.472.352-1.773.792-2.081.44-.308 1.39-.77 2.27-1.766.76.828 1.835.96 2.234 1.591 1.812 2.868 2.991 1.955 2.991 2.256 0 .205-1.46.822-1.812 2.186m4.452-3.55c-1.022-.338-1.637-2.308-1.637-2.308s-3.88-5.902-6.862-5.404c-2.982.498-5.173 2.728-5.173 2.728s.827-3.48.475-5.508c.81-2.169 0-6.558 0-6.558S20.833-2.321 15.89.6c-.264 1.137.29 4.223.263 5.246-.026 1.023-2.091 10.651-2.217 10.02-.369-1.862-3.853-7.66-3.853-7.66s.264-1.223-1.636-3.881c-1.9-2.658-3.642-.368-3.642-.368s.826 4.04 2.058 5.404c-.387.49 3.273 10.283 1.9 8.29-1.372-1.994-2.428-2.939-3.272-3.358-.141-1.155-1.373-2.554-2.587-3.2C1.69 10.444.598 10.48 0 11.878c1.02 1.434 3.382 5.104 4.575 6.89 1.193 1.787 3.941 5.072 3.765 7.747-.256 3.895-1.337 11-2.111 14.165-.775 3.166-3.141 6.05-3.141 8.237h13.645s.211-4.17 1.848-5.876c1.636-1.705 6.255-2.807 6.862-6.348-.053-.76 7.337-6.977 7.337-6.977s1.03-1.705 1.056-2.519c2.058-1.626 2.111-2.78 2.111-2.78s-.712-2.361-2.797-.997" fill="#C21E4E" fill-rule="evenodd"/>
</svg>