<?xml version="1.0" encoding="UTF-8"?>
<svg width="503px" height="158px" viewBox="0 0 503 158" version="1.1" xmlns="http://www.w3.org/2000/svg" xmlns:xlink="http://www.w3.org/1999/xlink">
    <!-- Generator: Sketch 52 (66869) - http://www.bohemiancoding.com/sketch -->
    <title>about 2</title>
    <desc>Created with Sketch.</desc>
    <g id="Page-1" stroke="none" stroke-width="1" fill="none" fill-rule="evenodd">
        <g id="About" transform="translate(-473.000000, -785.000000)" fill="#FFFFFF">
            <g id="Copy" transform="translate(-2.000000, 732.000000)">
                <g id="about-2" transform="translate(475.000000, 53.000000)">
                    <path d="M61.12,124.98 L22.18,124.98 L16.24,156 L0.4,156 L29.88,2 L54.74,2 L84.22,156 L67.06,156 L61.12,124.98 Z M41.32,21.36 L24.38,110.24 L58.7,110.24 L41.32,21.36 Z M117.64,2 L152.18,2 C176.16,2 185.62,13.44 185.62,36.1 L185.62,43.36 C185.62,59.64 181,69.76 167.58,73.94 C182.54,78.12 188.26,90 188.26,106.94 L188.26,119.92 C188.26,143.02 177.04,156 153.06,156 L117.64,156 L117.64,2 Z M134.8,67.34 L148,67.34 C161.64,67.34 168.68,62.94 168.68,46.88 L168.68,37.86 C168.68,24.22 164.06,17.62 151.74,17.62 L134.8,17.62 L134.8,67.34 Z M134.8,140.38 L153.06,140.38 C165.6,140.38 171.32,133.78 171.32,119.48 L171.32,105.84 C171.32,88.68 164.5,82.96 149.76,82.96 L134.8,82.96 L134.8,140.38 Z M222.56,118.82 L222.56,39.18 C222.56,15.64 234.22,0.46 257.76,0.46 C281.52,0.46 293.18,15.64 293.18,39.18 L293.18,118.82 C293.18,142.14 281.52,157.54 257.76,157.54 C234.22,157.54 222.56,142.14 222.56,118.82 Z M239.5,38.3 L239.5,119.7 C239.5,133.78 245.44,141.92 257.76,141.92 C270.3,141.92 276.02,133.78 276.02,119.7 L276.02,38.3 C276.02,24.44 270.3,16.08 257.76,16.08 C245.44,16.08 239.5,24.44 239.5,38.3 Z M345.74,2 L345.74,119.7 C345.74,133.56 351.24,141.92 363.78,141.92 C376.1,141.92 381.6,133.56 381.6,119.7 L381.6,2 L397.66,2 L397.66,118.82 C397.66,142.14 386.88,157.76 363.12,157.76 C339.58,157.76 328.8,142.14 328.8,118.82 L328.8,2 L345.74,2 Z M473.76,156 L456.82,156 L456.82,17.62 L428.44,17.62 L428.44,2 L502.14,2 L502.14,17.62 L473.76,17.62 L473.76,156 Z" id="about"></path>
                </g>
            </g>
        </g>
    </g>
</svg>