<svg viewBox="0 0 155 88" xmlns="http://www.w3.org/2000/svg" xmlns:xlink="http://www.w3.org/1999/xlink"><defs><path id="a" d="M.019.013h17.978V38.78H.019z"/><path id="c" d="M.019.093h154.956v87.67H.019z"/></defs><g fill="none" fill-rule="evenodd"><g transform="translate(0 1)"><mask id="b" fill="#fff"><use xlink:href="#a"/></mask><path d="M8.998 33.242c1.897 0 3.036-.997 3.036-3.765V9.317c0-2.77-1.139-3.766-3.036-3.766H5.963v27.691h3.035zM0 .012h9.106c5.963 0 8.89 3.38 8.89 9.582V29.2c0 6.202-2.927 9.58-8.89 9.58H0V.014z" fill="#C21E4E" mask="url(#b)"/></g><path fill="#C21E4E" d="M28 1h17v5.571H34.233V16.88h8.557v5.571h-8.557V34.43H45V40H28V1M54 1h7.6l5.894 23.345h.11V1H73v39h-6.222l-7.27-28.47h-.11V40H54V1"/><g><mask id="d" fill="#fff"><use xlink:href="#c"/></mask><path fill="#C21E4E" mask="url(#d)" d="M87.404 6.175H81.05V.645h18.785v5.53h-6.354v33.174h-6.077V6.175M120.222 30.558V9.438c0-2.765-1.216-3.816-3.15-3.816-1.933 0-3.149 1.05-3.149 3.815v21.121c0 2.765 1.216 3.815 3.15 3.815 1.933 0 3.15-1.05 3.15-3.815zm-12.376-.387V9.825c0-6.193 3.26-9.732 9.227-9.732 5.967 0 9.227 3.539 9.227 9.732V30.17c0 6.192-3.26 9.731-9.227 9.731-5.967 0-9.227-3.539-9.227-9.73zM135.913.646h7.625l5.912 23.167h.11V.646h5.415v38.703h-6.243l-7.294-28.252h-.11v28.252h-5.415V.646"/><path d="M9.172 82.234c1.933 0 3.094-.994 3.094-3.759V58.35c0-2.764-1.16-3.76-3.094-3.76H6.078v27.645h3.094zM0 49.061h9.282c6.078 0 9.061 3.373 9.061 9.565v19.573c0 6.192-2.983 9.565-9.061 9.565H0V49.06z" fill="#4D4E4C" mask="url(#d)"/></g><path fill="#4D4E4C" d="M28 49h17v5.571H34.233V64.88h8.557v5.571h-8.557v11.978H45V88H28V49M54 78.222V76h5.707v2.667c0 2.777 1.207 3.778 3.128 3.778 1.92 0 3.129-1 3.129-3.889 0-3.223-1.208-5.278-5.16-8.778-5.048-4.5-6.694-7.667-6.694-12.111 0-6.112 3.128-9.667 9-9.667 5.871 0 8.78 3.555 8.78 9.778v1.61h-5.707v-2c0-2.776-1.098-3.833-3.02-3.833-1.92 0-3.017 1.057-3.017 3.723 0 2.833 1.262 4.89 5.214 8.389 5.048 4.5 6.64 7.611 6.64 12.444C72 84.445 68.817 88 62.89 88 56.964 88 54 84.445 54 78.222M108 78.222V57.778c0-6.223 3.073-9.778 9-9.778s9 3.555 9 9.778v3.333h-5.708v-3.722c0-2.777-1.207-3.834-3.127-3.834-1.921 0-3.128 1.057-3.128 3.834v21.278c0 2.777 1.207 3.778 3.128 3.778 1.92 0 3.127-1 3.127-3.778v-7.611h-3.018V65.5H126v12.722c0 6.223-3.073 9.778-9 9.778s-9-3.555-9-9.778M136 49h7.6l5.893 23.345h.11V49H155v39h-6.224l-7.269-28.47h-.11V88H136V49M87.426 54.571H81V49h19v5.571h-6.426V88h-6.148V54.571"/><path fill="#4D4E4C" d="M93.574 82.428H100V88H81v-5.572h6.426V49h6.148v33.428"/></g></svg>