<svg viewBox="0 0 90 174" xmlns="http://www.w3.org/2000/svg">
  <g fill-rule="nonzero" fill="none">
    <path d="M14.3 14h44.1c21.1 0 31.4 11.7 31.4 33.2V140c0 21.5-10.4 33.2-31.4 33.2H14.3V14zM58 154c6.7 0 10.7-3.5 10.7-13V46.2c0-9.6-4-13-10.7-13H35.4V154H58z" fill="#4D4E4C"/>
    <path d="M65.9 36.1c-1.8-2.1-4.5-2.9-7.9-2.9H35.4v119l-21.1 2.2V14h44.1c10 0 8.7-2.9 13.9 2.2l-6.4 19.9z" fill="#FFF"/>
    <path d="M.7.4h44.1c21.1 0 31.4 11.7 31.4 33.2v92.9c0 21.5-10.4 33.2-31.4 33.2H.7V.4zm43.8 140c6.7 0 10.7-3.5 10.7-13V32.6c0-9.6-4-13-10.7-13H21.8v120.9h22.7v-.1z" fill="#C21E4E"/>
  </g>
</svg>