<svg viewBox="0 0 948 344" xmlns="http://www.w3.org/2000/svg"><path d="M218.64 157V3h36.52c25.08 0 35.86 11.66 35.86 35.42v6.16c0 15.84-4.84 25.74-15.62 30.14v.44c12.98 4.4 18.04 15.84 18.04 32.12v13.2c0 23.76-12.54 36.52-36.74 36.52h-38.06zm24.2-91.3h9.46c9.02 0 14.52-3.96 14.52-16.28v-8.58c0-11-3.74-15.84-12.32-15.84h-11.66v40.7zm0 69.3h13.86c8.14 0 12.54-3.74 12.54-15.18V106.4c0-14.3-4.62-18.7-15.62-18.7h-10.78V135zm119.88 24.2c-23.76 0-36.08-14.08-36.08-38.72V3h24.2v119.24c0 11 4.62 14.96 12.32 14.96s12.32-3.96 12.32-14.96V3h23.32v117.48c0 24.64-12.32 38.72-36.08 38.72zm73.24-2.2V3h35.86c25.08 0 35.86 11.66 35.86 35.42v9.46c0 15.84-5.06 25.96-15.84 30.36v.44c12.1 3.74 16.06 15.18 16.06 32.56v27.06c0 7.48.22 12.98 2.64 18.7H485.9c-1.32-3.96-2.2-6.38-2.2-18.92v-28.16c0-14.3-4.18-18.92-15.18-18.92h-8.36v66h-24.2zm24.2-88h8.8c9.02 0 14.52-3.96 14.52-16.28V40.84c0-11-3.74-15.84-12.32-15.84h-11v44zm84.46 88V3h30.36l23.54 92.18h.44V3h21.56v154h-24.86L566.62 44.58h-.44V157h-21.56zm145.4 2.2c-23.76 0-35.64-14.08-35.64-38.72v-8.8h22.88v10.56c0 11 4.84 14.96 12.54 14.96 7.7 0 12.54-3.96 12.54-15.4 0-12.76-4.84-20.9-20.68-34.76-20.24-17.82-26.84-30.36-26.84-47.96C654.82 14.88 667.36.8 690.9.8s35.2 14.08 35.2 38.72v6.38h-22.88v-7.92c0-11-4.4-15.18-12.1-15.18-7.7 0-12.1 4.18-12.1 14.74 0 11.22 5.06 19.36 20.9 33.22 20.24 17.82 26.62 30.14 26.62 49.28 0 25.08-12.76 39.16-36.52 39.16zM0 341V187h34.54l15.4 110.22h.44L65.78 187h34.54v154H77.44V224.4H77L59.4 341H39.16l-17.6-116.6h-.44V341H0zm172.46 2.2c-23.32 0-35.64-14.08-35.64-37.84v-82.72c0-23.76 12.32-37.84 35.64-37.84s35.64 14.08 35.64 37.84v16.28h-22.88V221.1c0-10.12-4.84-14.3-12.1-14.3s-12.1 4.18-12.1 14.3v86.02c0 10.12 4.84 14.08 12.1 14.08s12.1-3.96 12.1-14.08v-23.54h22.88v21.78c0 23.76-12.32 37.84-35.64 37.84zm70.16-2.2V187h36.96c24.2 0 36.08 13.42 36.08 38.06v77.88c0 24.64-11.88 38.06-36.08 38.06h-36.96zm24.2-22h12.32c7.7 0 12.32-3.96 12.32-14.96v-80.08c0-11-4.62-14.96-12.32-14.96h-12.32v110zm120.1 24.2c-23.76 0-36.74-14.08-36.74-38.72v-80.96c0-24.64 12.98-38.72 36.74-38.72s36.74 14.08 36.74 38.72v80.96c0 24.64-12.98 38.72-36.74 38.72zm0-22c7.7 0 12.54-4.18 12.54-15.18v-84.04c0-11-4.84-15.18-12.54-15.18-7.7 0-12.54 4.18-12.54 15.18v84.04c0 11 4.84 15.18 12.54 15.18zm73.02 19.8V187h30.36l23.54 92.18h.44V187h21.56v154h-24.86l-29.04-112.42h-.44V341h-21.56zm113.94 0V187h30.36l23.54 92.18h.44V187h21.56v154h-24.86l-29.04-112.42h-.44V341h-21.56zm113.94 0V187h66v22h-41.8v40.7h33.22v22h-33.22V319h41.8v22h-66zm99.86 0V187h24.2v132h39.82v22h-64.02zm95.68 0V187h24.2v132h39.82v22h-64.02z" fill="#FFF" fill-rule="evenodd"/></svg>